<?xml version="1.0" encoding="utf-8"?>
<!-- Generator: Adobe Illustrator 24.0.0, SVG Export Plug-In . SVG Version: 6.00 Build 0)  -->
<svg version="1.1" id="Layer_1" xmlns="http://www.w3.org/2000/svg" xmlns:xlink="http://www.w3.org/1999/xlink" x="0px" y="0px"
	 viewBox="0 0 128 128" style="enable-background:new 0 0 128 128;" xml:space="preserve">
<style type="text/css">
	.st0{fill:#740499;}
</style>
<path class="st0" d="M19.6,27l8.1,89.9l36.3,9.7l36.4-9.5l8.1-90.1H19.6z M91.6,47.5l-0.5,5.8L90.9,56H48.3l1,12h40.5l-0.3,2.2
	L87,99.1l-0.2,1.7L64,107v0l0,0l-22.8-5.9L39.6,84h11.2l0.8,8.5L64,95.6l0-0.2v0l12.4-2.6L77.7,79H39.2l-2.7-30.8L36.2,45h55.7
	L91.6,47.5L91.6,47.5z M28,1.6h5.6v5.6h5.1V1.6h5.6v16.8h-5.6v-5.6h-5.1v5.6H28C28,18.4,28,1.6,28,1.6z M51.7,7.2h-5V1.6h15.5v5.6
	h-5v11.2h-5.6C51.7,18.4,51.7,7.2,51.7,7.2z M64.8,1.6h5.9l3.6,5.9l3.6-5.9h5.9v16.8h-5.6v-8.3l-3.9,6h-0.1l-3.9-6v8.3h-5.5
	L64.8,1.6L64.8,1.6z M86.5,1.6h5.6v11.3h7.9v5.6H86.5C86.5,18.5,86.5,1.6,86.5,1.6z"/>
</svg>
