<?xml version="1.0" encoding="utf-8"?>
<!-- Generator: Adobe Illustrator 24.0.0, SVG Export Plug-In . SVG Version: 6.00 Build 0)  -->
<svg version="1.1" id="Handlebars" xmlns="http://www.w3.org/2000/svg" xmlns:xlink="http://www.w3.org/1999/xlink" x="0px" y="0px"
	 viewBox="0 0 128 128" style="enable-background:new 0 0 128 128;" xml:space="preserve">
<style type="text/css">
	.st0{fill:#740499;}
</style>
<title>Artboard 5</title>
<g id="original-wordmark">
	<g id="handlebars-2">
		<path class="st0" d="M6.5,41.2v4.5c0.3-0.4,0.7-0.7,1.1-1c0.4-0.3,0.8-0.5,1.2-0.6c0.5-0.1,0.9-0.2,1.4-0.2c0.7,0,1.4,0.2,2,0.5
			c1,0.5,1.7,1.5,1.9,2.6c0.1,0.5,0.1,1,0.1,1.5v5.8c0,0.5-0.1,1-0.4,1.4c-0.3,0.3-0.7,0.5-1.1,0.5c-1,0-1.5-0.6-1.5-1.8v-5.1
			c0-0.8-0.1-1.5-0.4-2.2c-0.4-0.6-1-0.9-1.6-0.8c-0.5,0-1,0.2-1.5,0.5c-0.5,0.3-0.8,0.8-1,1.3c-0.2,0.8-0.3,1.6-0.2,2.4v4
			c0,0.5-0.1,1-0.4,1.4C5.8,56,5.4,56.2,5,56.2c-1,0-1.5-0.6-1.5-1.8V41.2c0-0.5,0.1-1,0.4-1.4c0.3-0.3,0.7-0.5,1.1-0.5
			c0.4,0,0.8,0.1,1.1,0.5C6.4,40.2,6.6,40.7,6.5,41.2z"/>
		<path class="st0" d="M25,54.5c-0.7,0.5-1.4,0.9-2.1,1.3c-0.7,0.3-1.5,0.4-2.3,0.4c-0.7,0-1.4-0.1-2-0.5c-0.6-0.3-1-0.7-1.4-1.2
			c-0.3-0.5-0.5-1.1-0.5-1.7c0-0.8,0.3-1.5,0.8-2.1c0.6-0.6,1.3-1,2.2-1.2l1.4-0.3c0.8-0.2,1.4-0.3,2-0.4c0.6-0.1,1.2-0.3,1.8-0.5
			c0-0.6-0.2-1.2-0.5-1.8c-0.5-0.5-1.2-0.7-1.9-0.5c-0.6,0-1.2,0.1-1.7,0.3c-0.4,0.2-0.8,0.6-1,1c-0.3,0.4-0.5,0.7-0.6,0.8
			c-0.2,0.2-0.5,0.2-0.7,0.2c-0.3,0-0.6-0.1-0.9-0.3c-0.2-0.2-0.4-0.5-0.4-0.8c0-0.6,0.2-1.1,0.6-1.5c0.5-0.6,1.1-1,1.8-1.2
			c1-0.4,2-0.5,3-0.5c1.1,0,2.1,0.1,3.1,0.5c0.7,0.3,1.3,0.8,1.6,1.5c0.3,0.9,0.5,1.8,0.5,2.7c0,0.7,0,1.3,0,1.8s0,1,0,1.7
			c0,0.6,0.1,1.2,0.2,1.7c0.1,0.4,0.2,0.8,0.3,1.2c0,0.3-0.2,0.6-0.4,0.8c-0.3,0.2-0.6,0.4-1,0.4c-0.4,0-0.7-0.2-0.9-0.4
			C25.6,55.4,25.3,55,25,54.5z M24.8,50.1c-0.6,0.2-1.3,0.4-1.9,0.5c-0.8,0.2-1.4,0.3-1.8,0.4c-0.3,0.1-0.7,0.3-0.9,0.5
			c-0.3,0.3-0.5,0.6-0.4,1c0,0.4,0.2,0.9,0.5,1.2c0.4,0.3,0.9,0.5,1.4,0.5c0.6,0,1.1-0.1,1.7-0.4c0.5-0.2,0.9-0.6,1.1-1
			c0.3-0.7,0.5-1.5,0.4-2.3L24.8,50.1z"/>
		<path class="st0" d="M33.6,45.5v0.4c0.5-0.6,1.1-1.2,1.8-1.5c0.7-0.3,1.4-0.5,2.2-0.5c0.7,0,1.5,0.2,2.1,0.5
			c0.6,0.3,1.1,0.9,1.4,1.5c0.2,0.4,0.3,0.8,0.4,1.2c0.1,0.5,0.1,1.1,0.1,1.6v5.6c0,0.5-0.1,1-0.4,1.4c-0.6,0.6-1.5,0.6-2.1,0.1
			c0,0,0,0-0.1-0.1c-0.3-0.4-0.5-0.9-0.4-1.4v-5.1c0.1-0.8-0.1-1.6-0.4-2.3c-0.4-0.6-1-0.9-1.7-0.8c-0.5,0-1,0.2-1.4,0.5
			c-0.5,0.3-0.8,0.8-1,1.3c-0.2,0.8-0.3,1.7-0.2,2.5v3.8c0,0.5-0.1,1-0.4,1.4c-0.3,0.3-0.7,0.5-1.1,0.5c-0.4,0-0.8-0.2-1.1-0.5
			c-0.3-0.4-0.5-0.9-0.4-1.4v-8.7c0-0.5,0.1-0.9,0.4-1.3c0.3-0.3,0.6-0.4,1-0.4c0.3,0,0.5,0.1,0.7,0.2c0.2,0.1,0.4,0.3,0.5,0.6
			C33.5,44.9,33.6,45.2,33.6,45.5z"/>
		<path class="st0" d="M52.8,54.5v-0.3c-0.4,0.4-0.8,0.8-1.2,1.1c-0.4,0.3-0.8,0.5-1.3,0.7c-0.5,0.2-1,0.2-1.5,0.2
			c-0.7,0-1.4-0.2-2-0.5c-0.6-0.3-1.2-0.8-1.6-1.3c-0.5-0.6-0.8-1.3-1-2c-0.2-0.8-0.4-1.7-0.3-2.5c-0.1-1.6,0.4-3.2,1.4-4.4
			c0.9-1.1,2.3-1.6,3.7-1.6c0.8,0,1.5,0.1,2.2,0.5c0.7,0.3,1.3,0.8,1.8,1.4v-4.5c0-0.5,0.1-1,0.4-1.4c0.3-0.3,0.6-0.5,1.1-0.5
			c0.4,0,0.8,0.1,1.1,0.4c0.3,0.4,0.4,0.8,0.4,1.3v13.4c0,0.5-0.1,0.9-0.4,1.3c-0.3,0.3-0.6,0.4-1,0.4c-0.4,0-0.7-0.2-1-0.5
			C53,55.4,52.8,54.9,52.8,54.5z M46.8,50c0,0.7,0.1,1.4,0.4,2.1c0.2,0.5,0.5,1,1,1.3c0.4,0.3,0.9,0.4,1.5,0.4c0.5,0,1-0.1,1.5-0.4
			c0.5-0.3,0.8-0.8,1-1.3c0.3-0.7,0.5-1.4,0.5-2.2c0-0.7-0.1-1.4-0.4-2.1c-0.2-0.5-0.6-1-1.1-1.3c-0.4-0.3-0.9-0.5-1.5-0.5
			c-0.5,0-1.1,0.2-1.5,0.5c-0.5,0.3-0.8,0.8-1,1.3C47,48.6,46.9,49.3,46.8,50L46.8,50z"/>
		<path class="st0" d="M58.8,54.4V41.2c0-0.5,0.1-1,0.4-1.4c0.3-0.3,0.7-0.5,1.1-0.5c0.4,0,0.8,0.2,1.1,0.5c0.3,0.4,0.5,0.9,0.4,1.4
			v13.2c0,0.5-0.1,1-0.4,1.4c-0.3,0.3-0.7,0.5-1.1,0.5c-0.4,0-0.8-0.2-1.1-0.5C58.9,55.3,58.7,54.8,58.8,54.4z"/>
		<path class="st0" d="M73.4,50.8h-5.9c0,0.6,0.1,1.3,0.4,1.8c0.5,1,1.5,1.6,2.6,1.6c0.3,0,0.7,0,1-0.1c0.3-0.1,0.6-0.2,0.9-0.4
			c0.3-0.2,0.5-0.4,0.8-0.6c0.2-0.2,0.5-0.5,0.9-0.8c0.2-0.1,0.4-0.2,0.7-0.2c0.3,0,0.5,0.1,0.8,0.3c0.2,0.2,0.3,0.4,0.3,0.7
			c0,0.4-0.1,0.7-0.3,1c-0.3,0.4-0.6,0.8-1,1c-0.5,0.4-1,0.7-1.6,0.8c-0.7,0.2-1.5,0.3-2.3,0.3c-1.7,0.1-3.3-0.5-4.5-1.7
			c-1.1-1.2-1.7-2.9-1.7-4.5c0-0.8,0.1-1.7,0.4-2.5c0.2-0.7,0.6-1.4,1.2-2c0.5-0.6,1.2-1,1.9-1.3c0.8-0.3,1.6-0.5,2.5-0.4
			c1,0,2.1,0.2,3,0.8c0.8,0.5,1.5,1.1,1.9,1.9c0.4,0.8,0.7,1.6,0.7,2.5c0,0.8-0.2,1.3-0.7,1.5C74.6,50.7,74,50.8,73.4,50.8z
			 M67.4,49.1h5.5c0-0.9-0.3-1.7-0.8-2.3c-0.5-0.5-1.2-0.8-1.9-0.7c-0.7,0-1.4,0.3-1.9,0.8C67.8,47.4,67.5,48.2,67.4,49.1z"/>
		<path class="st0" d="M80.9,41.1v4.6c0.5-0.5,1.1-1,1.7-1.4c0.7-0.3,1.4-0.5,2.2-0.5c0.9,0,1.9,0.2,2.7,0.7
			c0.8,0.5,1.4,1.2,1.8,2.1c0.4,1,0.7,2.1,0.6,3.2c0,0.9-0.1,1.7-0.3,2.5c-0.2,0.7-0.5,1.4-1,2c-0.4,0.6-1,1-1.6,1.3
			c-0.7,0.3-1.4,0.5-2.1,0.5c-0.5,0-0.9-0.1-1.3-0.2c-0.4-0.1-0.7-0.2-1-0.4c-0.3-0.2-0.5-0.3-0.7-0.6c-0.2-0.2-0.5-0.5-0.8-0.9v0.3
			c0,0.5-0.1,0.9-0.4,1.3c-0.3,0.3-0.6,0.4-1,0.4c-0.4,0-0.7-0.2-1-0.4c-0.3-0.4-0.4-0.8-0.4-1.3V41.2c0-0.5,0.1-1,0.4-1.4
			c0.2-0.3,0.6-0.5,1-0.5c0.4,0,0.8,0.1,1.1,0.5C80.9,40.2,81,40.7,80.9,41.1z M81.1,50.1c-0.1,1,0.2,2,0.8,2.8c0.5,0.7,1.3,1,2.2,1
			c0.8,0,1.5-0.4,2-1c0.6-0.8,0.9-1.9,0.8-2.9c0-0.7-0.1-1.4-0.3-2c-0.2-0.5-0.5-1-1-1.3c-0.4-0.3-0.9-0.5-1.5-0.5
			c-0.5,0-1.1,0.2-1.5,0.5c-0.5,0.3-0.8,0.8-1,1.3C81.2,48.7,81.1,49.4,81.1,50.1L81.1,50.1z"/>
		<path class="st0" d="M100,54.5c-0.7,0.5-1.4,0.9-2.1,1.3c-0.7,0.3-1.5,0.4-2.3,0.4c-0.7,0-1.4-0.1-2-0.5c-0.6-0.3-1-0.7-1.4-1.2
			c-0.3-0.5-0.5-1.1-0.5-1.7c0-0.8,0.3-1.5,0.8-2.1c0.6-0.6,1.3-1,2.2-1.2l1.4-0.3c0.8-0.2,1.4-0.3,2-0.4c0.6-0.1,1.2-0.3,1.8-0.5
			c0-0.6-0.2-1.2-0.5-1.8c-0.5-0.5-1.2-0.6-1.9-0.5c-0.6,0-1.2,0.1-1.7,0.3c-0.4,0.2-0.8,0.6-1,1c-0.3,0.4-0.5,0.7-0.6,0.8
			c-0.2,0.2-0.5,0.2-0.7,0.2c-0.3,0-0.6-0.1-0.9-0.4c-0.2-0.2-0.4-0.5-0.4-0.8c0-0.6,0.2-1.1,0.6-1.5c0.5-0.6,1.1-1,1.8-1.2
			c1-0.4,2-0.5,3-0.5c1.1,0,2.1,0.1,3.1,0.5c0.7,0.3,1.3,0.8,1.6,1.5c0.3,0.9,0.5,1.8,0.5,2.7c0,0.7,0,1.3,0,1.8s0,1,0,1.7
			c0,0.6,0.1,1.2,0.3,1.8c0.1,0.4,0.2,0.8,0.3,1.2c0,0.3-0.2,0.6-0.4,0.8c-0.3,0.2-0.6,0.4-1,0.4c-0.4,0-0.7-0.2-0.9-0.4
			C100.6,55.4,100.3,55,100,54.5z M99.8,50.1c-0.6,0.2-1.3,0.4-1.9,0.5c-0.8,0.2-1.4,0.3-1.8,0.4c-0.3,0.1-0.7,0.3-0.9,0.5
			c-0.3,0.3-0.5,0.6-0.4,1c0,0.4,0.2,0.9,0.5,1.2c0.4,0.3,0.9,0.5,1.4,0.5c0.6,0,1.1-0.1,1.7-0.4c0.5-0.2,0.9-0.6,1.1-1
			c0.3-0.7,0.5-1.5,0.4-2.3L99.8,50.1z"/>
		<path class="st0" d="M108.8,51.8v2.5c0,0.5-0.1,1-0.4,1.4c-0.3,0.3-0.7,0.5-1.1,0.5c-0.4,0-0.8-0.2-1.1-0.5
			c-0.3-0.4-0.5-0.9-0.4-1.4v-8.4c0-1.3,0.5-2,1.5-2c0.4,0,0.8,0.1,1.1,0.5c0.3,0.4,0.4,0.9,0.4,1.4c0.3-0.5,0.7-1,1.1-1.4
			c0.4-0.3,1-0.5,1.5-0.5c0.6,0,1.3,0.2,1.8,0.5c0.5,0.2,0.9,0.7,0.9,1.3c0,0.3-0.1,0.7-0.4,0.9c-0.2,0.2-0.5,0.4-0.8,0.4
			c-0.3,0-0.5-0.1-0.8-0.2c-0.4-0.1-0.7-0.2-1.1-0.2c-0.4,0-0.8,0.1-1.1,0.3c-0.3,0.3-0.5,0.6-0.7,1c-0.2,0.5-0.3,1.1-0.3,1.6
			C108.9,50.1,108.8,50.9,108.8,51.8z"/>
		<path class="st0" d="M125,52.2c0.1,1.6-0.9,3-2.4,3.5c-0.9,0.3-1.9,0.5-2.9,0.5c-1,0-1.9-0.1-2.8-0.5c-0.7-0.3-1.3-0.7-1.7-1.2
			c-0.3-0.4-0.5-1-0.6-1.5c0-0.3,0.1-0.6,0.3-0.8c0.2-0.2,0.6-0.4,0.9-0.3c0.3,0,0.5,0.1,0.7,0.2c0.2,0.2,0.4,0.4,0.5,0.7
			c0.3,0.5,0.7,0.9,1.1,1.2c0.5,0.3,1.2,0.4,1.8,0.4c0.5,0,1-0.1,1.5-0.4c0.3-0.2,0.6-0.5,0.6-0.9c0-0.5-0.2-0.9-0.6-1.2
			c-0.6-0.3-1.3-0.6-2-0.7c-0.9-0.2-1.7-0.5-2.6-0.8c-0.6-0.2-1.1-0.6-1.6-1.1c-0.4-0.5-0.6-1.1-0.6-1.7c0-0.6,0.2-1.2,0.5-1.7
			c0.4-0.6,1-1,1.6-1.3c0.8-0.3,1.7-0.5,2.6-0.5c0.7,0,1.4,0.1,2.1,0.2c0.6,0.1,1.1,0.4,1.6,0.7c0.4,0.2,0.7,0.5,1,0.9
			c0.2,0.3,0.3,0.6,0.3,1c0,0.3-0.1,0.6-0.3,0.8c-0.3,0.2-0.6,0.4-1,0.3c-0.3,0-0.6-0.1-0.8-0.3c-0.3-0.2-0.5-0.5-0.8-0.8
			c-0.2-0.3-0.5-0.5-0.8-0.7c-0.4-0.2-0.8-0.3-1.3-0.3c-0.5,0-1,0.1-1.4,0.3c-0.3,0.2-0.5,0.5-0.5,0.9c0,0.3,0.1,0.6,0.4,0.8
			c0.3,0.2,0.7,0.4,1.1,0.5c0.5,0.1,1.1,0.3,1.9,0.5c0.8,0.2,1.6,0.5,2.3,0.8c0.5,0.3,1,0.7,1.3,1.1C124.8,51.2,125,51.7,125,52.2z"
			/>
	</g>
	<g id="moustache">
		<path id="Path-2" class="st0" d="M31,80.3c0.7-0.6,1.3-1.4,1.6-2.4c0.5-1.4-0.2-3-1.6-3.6c-4.6-2.3-7.6,1.8-8,2.8s-1.2,2.5-0.7,6
			s2.2,6.7,7.5,8c5.1,1.2,10.4,0.6,15-1.8c4.7-2.2,13.4-6.1,15.6-6.5c1.4-0.4,2.9-0.5,4.4-0.6V77c-2.4-4.2-7-6.7-11.8-6.2
			c-8.4,0.7-11.8,5-13.8,6.9s-5.9,6.2-8.4,5.5s-3.3-3.9-2.4-4.9s1.6-0.8,2.2,0C30.8,78.9,31,79.6,31,80.3z"/>
		<path id="Path-2-Copy" class="st0" d="M98.2,80.3c-0.7-0.6-1.3-1.4-1.6-2.4c-0.5-1.4,0.2-3,1.6-3.6c4.6-2.3,7.6,1.8,8,2.8
			s1.2,2.5,0.7,6s-2.2,6.7-7.4,8c-5.1,1.2-10.4,0.6-15-1.8c-4.7-2.2-13.4-6.1-15.6-6.5c-1.4-0.4-2.9-0.5-4.4-0.6V77
			c2.4-4.2,7-6.7,11.8-6.2c8.4,0.7,11.8,5,13.8,6.9s5.9,6.2,8.4,5.5s3.3-3.9,2.4-4.9s-1.6-0.8-2.2,0C98.3,78.9,98.2,79.6,98.2,80.3z
			"/>
	</g>
</g>
</svg>
