<?xml version="1.0" encoding="utf-8"?>
<!-- Generator: Adobe Illustrator 24.0.0, SVG Export Plug-In . SVG Version: 6.00 Build 0)  -->
<svg version="1.1" id="Layer_1" xmlns="http://www.w3.org/2000/svg" xmlns:xlink="http://www.w3.org/1999/xlink" x="0px" y="0px"
	 viewBox="0 0 128 128" style="enable-background:new 0 0 128 128;" xml:space="preserve">
<style type="text/css">
	.st0{fill:#9400D3;}
</style>
<g>
	<path class="st0" d="M35.3,101.8c-4,0-7.3,0.5-9.7,1.4c-0.9,3.2-1.3,6.6-1.3,10.4c0,7,1.2,11.3,9.2,11.3c3.7,0,6.8-1.1,9.3-2.3
		L42,119c-2.4,0.9-5.5,1.7-8.2,1.7c-3.5,0-4.6-0.9-4.8-6.9h15v-2.2C44,105.5,41.8,101.8,35.3,101.8z M29,111c0.1-3,0.3-3.8,0.5-4.7
		c1.9-0.4,4.1-0.4,5.6-0.4c3.3,0,3.9,2.1,3.9,5.1H29z M13.9,101.8c-2.7,0-4.9,0.7-7.9,1.5V93H2v31h4v-16.6c3-1,5-1.5,7-1.5
		c1,0,2,0.5,2,1.7v16.9l0.4-0.4H20v-15.8C20,104.5,18.2,101.8,13.9,101.8z M122,102v17.4c-3,1-5.6,1.5-7.7,1.5c-1,0-2.3-0.5-2.3-1.7
		V102h-4v16.7c0,3.7,1.3,6.3,5.6,6.3c2.7,0,7.4-0.4,12.4-3.5V102H122z M103.8,102h-5.4c-1.3,3-3.2,7-5.6,9H91V93h-5v31h5v-10h2.1
		c2.8,3,4.6,7,6,10h5.6c-2.1-4-4.5-8.4-7.7-12.4C99.6,108.9,102,106,103.8,102z M48,124h4v-16.6c2-0.8,5-1.1,7-1.2v-4
		c-3,0.2-7,0.9-11,3.1V124z M71.4,101.8c-6.1,0-10.3,3.2-10.3,11.7c0,8,3.2,11.5,10.3,11.5c6.1,0,10.3-3.2,10.3-11.7
		C81.7,105.3,78.5,101.8,71.4,101.8z M71.4,121c-4,0-5.7-1.4-5.7-7.5c0-5.6,2-7.7,5.7-7.7c4,0,5.7,1.4,5.7,7.5
		C77,118.9,75,121,71.4,121z M99,10.3C99,5.7,95.3,2,90.7,2H37.3C32.7,2,29,5.7,29,10.3v70.4c0,4.6,3.7,8.3,8.3,8.3h53.4
		c4.6,0,8.3-3.7,8.3-8.3C99,80.7,99,10.3,99,10.3z M32,10.8C32,7.5,34.5,5,37.7,5h52.5c3.3,0,5.8,2.6,5.8,5.8v69.4
		c0,3.3-2.5,5.9-5.7,5.9H37.7c-3.3,0-5.7-2.6-5.7-5.9C32,80.2,32,10.8,32,10.8z M85.9,14H75.2c0,0-3.4,8-7.1,12h10.4
		C84.1,19,85.9,14,85.9,14z M45,76.9l9.8-9.9L45,57.2V76.9z M73,42.4v34.5L72.9,77H82V42.5c0-18.9-27-8.2-27-8.2V13.8l-9.8,0.1
		c0,0,0,32,0.1,31.9C75.2,34.2,73,42.4,73,42.4z"/>
</g>
</svg>
