<?xml version="1.0" encoding="utf-8"?>
<!-- Generator: Adobe Illustrator 24.0.0, SVG Export Plug-In . SVG Version: 6.00 Build 0)  -->
<svg version="1.1" id="Layer_1" xmlns="http://www.w3.org/2000/svg" xmlns:xlink="http://www.w3.org/1999/xlink" x="0px" y="0px"
	 viewBox="0 0 128 128" style="enable-background:new 0 0 128 128;" xml:space="preserve">
<style type="text/css">
	.st0{fill-rule:evenodd;clip-rule:evenodd;fill:#740499;}
</style>
<path class="st0" d="M82.8,34.2c-2.6-8.1-6.8-15.3-12.7-21.5c-1.5-1.6-3.1-3-4.2-4.9c-0.7-1.2-1.3-2.5-1.9-3.7l-0.4-1l-0.1,0.4
	c-0.1,2-1.2,3.4-2.6,4.7c-1.6,1.4-3.1,3-4.6,4.5l-4.7,6.2l-3.8,7l-2.6,6.9L45.1,33c-1.4,4.6-2.1,9.4-2.4,14.2
	c-0.1,1.8,0,3.6,0.1,5.5c0.1,2.6,0.6,5.1,1.3,7.7c2.5,9.1,7.4,16.7,14.3,23.1c1.3,1.2,2.6,2.3,4,3.4l0.6,2l0.5,3.1l0.3,3.3
	c0,0.7,0,1.3,0,2c0,0.2,0.2,0.3,0.4,0.5l1.1,0.4l1.1,0.4L66,95.6l0-2.8l0.4-4.3l0.3-0.9l0.8-1.5c1-0.8,2.1-1.6,3-2.5
	c1.7-1.6,3.4-3.3,4.9-5.1c1.9-2.3,3.6-4.9,5-7.6c0.9-1.8,1.7-3.7,2.4-5.6c0.6-1.7,1-3.5,1.5-5.2l0.1-0.4c1-4.7,1.2-9.4,0.8-14.2
	C85,41.6,84.1,37.9,82.8,34.2z M62.9,84.5c0.2-0.8,0.3-1.5,0.5-2.3C63.2,83,63.1,83.7,62.9,84.5z M66.3,85l-0.6-1.4L66.3,85l0.9,0.8
	L66.3,85z M106.5,103c-0.8-1.6-2-2.8-3.6-3.6c-1.3-0.7-2.8-0.9-4.3-1c-1.1,0-2.2,0-3.3,0c-1,0-2,0-3,0c-1.2,0-2.3,0-3.5-0.1
	c-0.2,0-0.3,0-0.4,0.2c-0.1,0.3-0.3,0.6-0.5,0.9l0.2,0.1c0.6,0.1,1.2,0.2,1.7,0.3c0.7,0.1,1.1,0.6,1.1,1.2c0.1,0.9,0.1,1.8,0.1,2.7
	c0,3.5,0,7-0.1,10.5c0,0.2,0,0.5-0.1,0.7c-0.1,0.3-0.2,0.6-0.3,0.7c-0.3,0.2-0.7,0.4-1.1,0.4c-0.6,0.1-0.7,0.1-0.8,0.7l-0.1,0.3
	c-0.1,0.3,0,0.4,0.3,0.4c1.8,0,3.6,0.1,5.4,0.1c1.6,0,3.3,0.1,4.9-0.2c1.5-0.3,3-0.8,4.3-1.7c1.7-1.1,2.9-2.6,3.6-4.6
	c0.5-1.6,0.6-3.2,0.5-4.8C107.3,105,107,104,106.5,103z M103.3,112.6c-1,1.8-2.4,3-4.5,3.3c-1.3,0.2-2.6,0.1-3.8-0.3
	c-0.8-0.3-1.1-1-1.1-1.8c0-0.8,0-1.6,0-2.3c0-2.7,0-5.5,0-8.2c0-0.9,0-1.7,0-2.6c0-0.6,0.1-0.8,0.7-0.9c2.6-0.2,5.1,0.1,7.1,1.9
	c1.3,1.1,2,2.6,2.3,4.2c0.1,0.7,0.2,1.4,0.2,2.1C104.3,109.6,104.1,111.2,103.3,112.6z M125.1,109.7c-0.5-1.2-1.5-2-2.7-2.5
	c-0.4-0.2-0.8-0.3-1.3-0.5l0.2-0.1c0.5-0.3,1-0.6,1.4-0.9c1-0.9,1.4-2.1,1.2-3.5c-0.2-1.3-0.8-2.3-2-2.9c-1.1-0.6-2.2-0.8-3.4-0.8
	c-2.1,0-4.1,0-6.2,0c-0.7,0-1.4-0.1-2.1-0.1c-0.1,0-0.3,0-0.4,0.1c-0.2,0.2-0.3,0.5-0.4,0.8c-0.1,0.2,0,0.3,0.2,0.3
	c0.5,0.1,1,0.2,1.5,0.2c0.7,0.1,1,0.5,1.1,1.2l0,0.4c0,2.2,0,4.3,0,6.5c0,2.2,0,4.3-0.1,6.5c0,0.3,0,0.5-0.1,0.8
	c-0.1,0.4-0.3,0.7-0.7,0.8l-1.2,0.2c-0.1,0-0.3,0-0.4,0.1c-0.2,0.3-0.4,0.7-0.4,1.1l0.1,0l4,0.1l0.8,0c1.4,0,2.7,0,4.1-0.1
	c1.5-0.1,2.9-0.5,4.2-1.3c1.4-0.8,2.4-1.9,2.8-3.5C125.5,111.7,125.5,110.6,125.1,109.7L125.1,109.7z M115.1,100.5
	c0-0.4,0.2-0.6,0.6-0.6c1.1,0,2.1,0,3.1,0.3c1.3,0.5,2.1,1.6,2.1,3c0,0.5,0,1.1-0.2,1.6c-0.4,1-1.1,1.5-2.2,1.7
	c-0.6,0.1-1.1,0.1-1.6,0.1l-1.6-0.1c-0.2,0-0.3-0.1-0.3-0.3L115.1,100.5L115.1,100.5z M121.9,114c-0.5,1.2-1.5,1.8-2.7,2
	c-1,0.2-1.9,0.1-2.9-0.1c-0.7-0.2-1-0.7-1.1-1.4c-0.1-0.4-0.1-0.9-0.1-1.4c0-0.7,0-2.1,0-2.1h0c0-1,0-1.9,0-2.8c0-0.2,0-0.3,0.3-0.3
	c0.9,0,1.8,0,2.7,0.1c0.8,0,1.6,0.3,2.3,0.7c1.1,0.6,1.7,1.5,1.9,2.7C122.3,112.2,122.3,113.1,121.9,114L121.9,114z M23.3,115.1
	l0-5.4c0-0.8-0.1-1.6-0.4-2.4c-0.7-2.1-2.8-3.1-4.9-2.3c-1,0.3-1.8,0.9-2.7,1.5c-0.5,0.3-0.5,0.3-0.8-0.1c-1-1.4-2.4-1.9-4-1.4
	c-1.1,0.3-2,0.9-2.9,1.6c-0.1,0.1-0.2,0.1-0.3,0.1c-0.1-0.1-0.1-0.2-0.1-0.3l0.1-1c0-0.2,0-0.4-0.1-0.6c-0.4,0.1-0.7,0.3-1,0.4
	c-1,0.2-2.1,0.5-3.1,0.7c-0.2,0.1-0.5,0.1-0.5,0.4c0,0.3,0.2,0.3,0.5,0.4c0.4,0.2,0.9,0.4,1.3,0.6c0.4,0.2,0.5,0.5,0.5,0.8
	c0,1.7,0,3.4,0,5.1c0,0.7,0,1.4-0.1,2.1c0,0.6-0.2,0.9-0.8,1c-0.3,0.1-0.6,0.1-0.9,0.2c-0.1,0-0.2,0.1-0.2,0.1c0,0.3,0,0.6,0,0.9
	c0,0.1,0.3,0.1,0.5,0.1l0.1,0c1.2,0,2.4,0,3.6-0.1c0.6,0,1.3,0,2,0l0.1-1c-0.4-0.1-0.8-0.1-1.1-0.2c-0.5-0.1-0.8-0.4-0.8-1l0-0.8
	c0-2.1,0-4.1,0-6.2c0-0.3,0.1-0.5,0.4-0.7c0.6-0.4,1.1-0.7,1.8-0.8c1.4-0.4,2.6,0.1,3.1,1.3c0.2,0.4,0.3,0.8,0.3,1.2
	c0.2,2.1,0.1,4.1,0,6.2c0,0.4-0.2,0.7-0.7,0.8l-1,0.2c-0.1,0-0.2,0-0.2,0c0,0.3,0,0.7,0,0.7h0.2l3.1,0.1c0.9,0,1.7,0.1,2.6,0.1
	c0.2,0,0.3,0,0.3-0.2c0-0.3,0-0.5,0-0.8l-0.2,0l-0.9-0.2c-0.6-0.1-0.8-0.4-0.8-1c0-1.5,0-3,0-4.5c0-0.9,0-1.7-0.1-2.6
	c0-0.2,0-0.4,0.2-0.5c0.5-0.4,1.1-0.7,1.7-0.8c1.9-0.5,3.5,0.6,3.6,2.5c0.1,1.9,0.1,3.9,0,5.8c0,0.7-0.2,0.9-0.9,1.1l-0.2,0.1
	c-0.7,0.2-0.7,0.2-0.6,0.9c0,0.2,0.1,0.3,0.3,0.3c1.4,0,2.8,0,4.1-0.1c0.6,0,1.1,0,1.7,0l0.1-0.9c-0.5-0.1-1-0.2-1.5-0.4
	C23.4,115.8,23.3,115.5,23.3,115.1L23.3,115.1z M70.8,106.8c0.6-0.5,0.6-1.2,0.4-2c-0.4,0.5-1,0.7-1.5,0.7c-0.8,0.1-1.5,0-2.2-0.3
	c-1.9-0.8-3.9-0.8-5.8,0.1c-1.6,0.8-2.6,2-2.7,3.8c-0.1,1.2,0.2,2.3,0.9,3.2c0.5,0.6,1.1,0.9,1.7,1.2c0.3,0.1,0.3,0.2,0.1,0.4
	c-0.2,0.1-0.4,0.3-0.6,0.4c-0.4,0.3-0.8,0.5-1.2,0.8c-0.2,0.1-0.3,0.3-0.2,0.6c0.2,0.8,0.8,1.3,1.6,1.7l0.3,0.2l-0.2,0.2
	c-0.7,0.6-1.5,1.1-2.2,1.8c-0.6,0.5-0.8,1.2-0.6,2c0.4,1.6,1.4,2.5,2.9,3c2.6,0.8,5,0.3,7.1-1.2c1.3-0.9,2.2-2.1,2.5-3.7
	c0.3-1.8-0.7-3.4-2.5-3.7c-1.2-0.2-2.4-0.3-3.6-0.4c-0.6-0.1-1.1-0.1-1.7-0.2c-0.5-0.1-0.7-0.5-0.7-0.9c0-0.4,0.4-0.7,0.9-0.7
	c0.9-0.1,1.8-0.2,2.6-0.6c2.2-1,3.2-2.7,2.9-5.1c0-0.3-0.1-0.6-0.2-1C69.5,107.2,70.2,107.3,70.8,106.8z M64.2,117.8
	c0.9,0,1.9,0.1,2.9,0.4c0.9,0.2,1.6,0.7,1.8,1.6c0.3,1.2-0.3,2.3-1.4,2.9c-1,0.6-2.2,0.6-3.3,0.5c-1-0.1-1.9-0.4-2.6-1.2
	c-0.9-1-0.9-2.3,0-3.2C62.3,118,62.7,117.8,64.2,117.8z M66.4,110.9c-0.5,1.7-2,1.9-3.2,1.4c-1-0.4-1.4-1.3-1.7-2.3
	c-0.1-0.4-0.1-0.8-0.2-1.2c0-0.6,0.1-1.1,0.4-1.6c0.8-1.6,2.6-1.5,3.6-0.8c0.4,0.3,0.7,0.7,0.9,1.2
	C66.7,108.6,66.7,109.7,66.4,110.9z M57,116.1c-0.4-0.1-0.7-0.1-1.1-0.2c-0.6-0.2-0.7-0.3-0.7-0.9c0-1.8,0-3.6,0-5.4
	c0-0.8-0.1-1.6-0.4-2.4c-0.7-2-2.6-3.1-4.6-2.5c-1.1,0.3-2.1,1-2.9,1.7l-0.3,0.2l0-0.3c0-0.4,0.1-0.8,0.1-1.1c0-0.2-0.1-0.4-0.1-0.6
	c-0.8,0.2-1.4,0.5-2.1,0.6c-0.7,0.2-1.4,0.3-2.1,0.4c-0.3,0.1-0.6,0.3-0.6,0.5c0,0.3,0.3,0.4,0.5,0.5c0.4,0.2,0.9,0.4,1.3,0.6
	c0.3,0.1,0.4,0.4,0.4,0.7c0,2.3,0,4.7-0.1,7c0,0.7-0.2,0.9-0.9,1.1l-0.3,0.1c-0.7,0.1-0.7,0.1-0.6,0.8l0,0.1c0,0.3,0.1,0.4,0.4,0.4
	c1.8,0,3.6,0,5.3,0c0.8,0,0.8-0.1,0.8-0.8l0-0.3c-0.4-0.1-0.9-0.1-1.3-0.2c-0.4-0.1-0.6-0.3-0.6-0.7c0-0.4,0-0.8-0.1-1.2
	c0-1.8,0-3.7,0-5.5c0-0.5,0.1-0.9,0.5-1.2c0.6-0.4,1.3-0.7,2.1-0.8c1.6-0.1,2.8,0.8,2.9,2.4c0.1,2,0.1,3.9,0.1,5.9
	c0,0.1,0,0.3,0,0.4c0,0.3-0.2,0.5-0.5,0.6c-0.3,0.1-0.6,0.1-0.9,0.2c-0.4,0.1-0.4,0.1-0.5,0.5l0,0.3c0.1,0.5,0.1,0.5,0.6,0.5
	c1.7,0,3.4,0,5.2,0c0.7,0,0.8,0,0.8-0.8l0-0.2C57.3,116.2,57.2,116.2,57,116.1z M81.1,104.8c-1.8-0.4-3.5-0.1-5.1,0.7
	c-1.6,0.8-2.6,2.1-3,3.8c-0.4,1.8-0.2,3.5,0.6,5.1c0.5,1.1,1.3,1.9,2.3,2.4c2.5,1.3,5.5,0.7,7.5-1c1.5-1.3,2.1-3.1,2.1-5.3
	c0-0.2,0-0.6-0.1-1.1C85,107.2,83.3,105.4,81.1,104.8z M82.4,114c-0.5,1.9-2.1,2.7-3.9,2.1c-0.9-0.3-1.6-1-2.1-1.8
	c-1.1-2-1.3-4-0.7-6.2c0.4-1.4,1.6-2.2,3-2.1c1.2,0.1,2.2,0.7,2.9,1.7c0.7,1.1,1,2.3,1.1,3.6c0,0.2,0,0.4,0,0.6l0.1,0
	C82.7,112.5,82.6,113.3,82.4,114z M35.7,104.8c-1.9-0.4-3.7,0-5.3,1c-1.4,0.8-2.3,2.1-2.7,3.7c-0.3,1.5-0.2,3,0.3,4.5
	c0.3,0.9,0.8,1.7,1.6,2.3c1.5,1.3,3.3,1.6,5.2,1.2c1.6-0.3,3-1,4.1-2.4c1-1.3,1.3-2.7,1.4-4.3c-0.1-0.5-0.1-1-0.2-1.5
	C39.5,106.9,38.1,105.3,35.7,104.8z M37.2,114c-0.5,1.9-2.1,2.7-3.9,2.1c-1.2-0.4-1.9-1.3-2.4-2.4c-0.8-1.8-0.9-3.6-0.4-5.5
	c0.4-1.4,1.5-2.5,3.3-2.2c1.1,0.2,1.9,0.7,2.6,1.6c0.9,1.2,1.1,2.6,1.2,4v0.3l0.1,0C37.4,112.6,37.4,113.3,37.2,114z"/>
</svg>
