<?xml version="1.0" encoding="utf-8"?>
<!-- Generator: Adobe Illustrator 24.0.0, SVG Export Plug-In . SVG Version: 6.00 Build 0)  -->
<svg version="1.1" id="Layer_1" xmlns="http://www.w3.org/2000/svg" xmlns:xlink="http://www.w3.org/1999/xlink" x="0px" y="0px"
	 viewBox="0 0 128 128" style="enable-background:new 0 0 128 128;" xml:space="preserve">
<style type="text/css">
	.st0{fill:#740499;}
</style>
<path class="st0" d="M20,50h8v28h-3v5h13v-6h-4V49h9v4h4v-8H15v8h5V50z M57.7,35h-53C3.8,35,3,36.1,3,37.1v53c0,0.9,0.8,2,1.7,2h53
	c0.9,0,1.3-1.1,1.3-2v-53C59,36.1,58.6,35,57.7,35z M50,56h-9v-4h-4v22h4v11H22V75h4V52h-4v4H12V42h38V56z M69.5,55.1
	c-0.4,0-0.7,0.1-1.1,0.2c-0.4,0.1-0.7,0.3-1.1,0.5c-0.3,0.2-0.6,0.4-0.9,0.7c-0.3,0.3-0.5,0.4-0.7,0.7L65.4,55H63v17h3v-9.9
	c0-0.5,0-1,0.2-1.5c0.2-0.5,0.4-0.9,0.7-1.3s0.7-0.7,1.1-0.9s0.9-0.3,1.5-0.3c0.2,0,0.5,0.2,1.5,0.5v-3.2c0-0.1-0.5-0.2-0.8-0.2
	C70,55.1,69.8,55.1,69.5,55.1L69.5,55.1z M86.8,69.7c-0.1,0-0.2,0-0.3-0.1c-0.1-0.1-0.2-0.1-0.2-0.2c-0.1-0.1-0.2-0.2-0.2-0.3
	c0-0.1-0.1-0.3-0.1-0.4v-8.4c0-0.9-0.1-1.7-0.5-2.3s-0.8-1.2-1.5-1.6c-0.6-0.4-1.3-0.7-2.1-0.9c-0.8-0.2-1.6-0.3-2.5-0.3
	c-0.8,0-1.5,0.1-2.3,0.3c-0.8,0.2-1.5,0.5-2.1,1c-0.6,0.4-1.2,0.8-1.6,1.5S72.9,60,72.8,60h3.2c0.1,0,0.2-0.6,0.4-1
	c0.2-0.3,0.5-0.5,0.8-0.7s0.7-0.3,1.1-0.4s0.9-0.1,1.3-0.1c1,0,1.8,0.2,2.4,0.6c0.6,0.4,0.9,1,0.9,1.8c0,0.4-0.1,0.7-0.3,0.9
	c-0.2,0.2-0.5,0.5-0.9,0.7s-0.8,0.4-1.3,0.5c-0.5,0.2-1,0.3-1.6,0.5c-0.7,0.2-1.5,0.5-2.2,0.7c-0.8,0.2-1.4,0.5-2,0.9
	c-0.6,0.4-1.1,0.8-1.5,1.3s-0.6,1.1-0.6,1.9c0,0.7,0.1,1.4,0.4,2s0.6,1.1,1.1,1.5s1,0.7,1.6,1c0.6,0.2,1.3,0.3,2,0.3
	c0.5,0,1,0,1.5-0.1c0.5-0.1,0.9-0.2,1.4-0.4c0.5-0.2,0.9-0.4,1.4-0.8c0.5-0.3,0.9-0.7,1.4-1.3c0.2,0.8,0.5,1.4,1,1.8
	c0.5,0.4,1.1,0.7,1.7,0.7c0.3,0,0.6,0,0.9-0.1c0.3-0.1,1.1-0.2,1.1-0.3v-2.7c0,0.1-0.5,0.2-0.8,0.2C87,69.6,86.9,69.7,86.8,69.7z
	 M83,66.3c-1,1.1-1.5,2-2.3,2.6c-0.9,0.6-1.8,0.9-2.7,0.9c-0.3,0-0.6,0-0.9-0.1s-0.5-0.2-0.8-0.4c-0.2-0.2-0.4-0.4-0.5-0.7
	c-0.1-0.3-0.2-0.6-0.2-1c0-0.4,0.1-0.8,0.4-1.1c0.3-0.3,0.7-0.6,1.1-0.8c0.5-0.2,1-0.4,1.5-0.6l1.7-0.5c0.5-0.1,1.1-0.3,1.6-0.5
	c0.5-0.2,1.2-0.4,1.2-0.6L83,66.3L83,66.3z M96.4,67.4L92.1,55h-3.4l6.2,17h3.2l6.1-17h-3.4L96.4,67.4z M106,49h3v3h-3V49z M106,55
	h3v17h-3V55z M124.2,65.7c-0.3-0.4-0.6-0.8-1.1-1.1s-1-0.6-1.5-0.9c-0.6-0.3-1.2-0.5-1.8-0.7l-1.8-0.7c-0.6-0.2-1.1-0.5-1.5-0.7
	c-0.4-0.3-0.8-0.5-1.1-0.8c-0.3-0.3-0.4-0.7-0.4-1.1c0-0.5,0.2-1,0.7-1.3c0.5-0.3,1.2-0.5,2.1-0.5c0.4,0,0.8,0,1.1,0.1
	c0.4,0.1,0.7,0.2,1,0.4c0.3,0.2,0.5,0.3,0.7,0.6c0.2,0.3,0.3,1,0.4,1h3.2c0-1-0.2-1.5-0.6-2.2s-0.8-1.1-1.3-1.5s-1.2-0.7-2-0.9
	c-0.8-0.2-1.6-0.3-2.5-0.3c-0.8,0-1.5,0.1-2.2,0.3c-0.7,0.2-1.4,0.5-1.9,0.8c-0.6,0.4-1,0.8-1.3,1.4c-0.3,0.6-0.5,1.2-0.5,2
	c0,0.6,0.1,1.1,0.4,1.6c0.3,0.5,0.6,0.9,1.1,1.2s1,0.7,1.5,0.9c0.6,0.3,1.2,0.5,1.8,0.8c0.6,0.2,1.2,0.5,1.8,0.7
	c0.6,0.2,1.1,0.5,1.5,0.7c0.4,0.3,0.8,0.5,1.1,0.9c0.3,0.3,0.4,0.7,0.4,1.1c0,0.4-0.1,0.8-0.3,1.1s-0.5,0.5-0.9,0.7
	c-0.4,0.2-0.7,0.3-1.2,0.4c-0.4,0.1-0.8,0.1-1.2,0.1c-0.5,0-0.9-0.1-1.3-0.2c-0.4-0.1-0.7-0.3-1-0.6c-0.3-0.3-0.5-0.8-0.7-1.2
	c-0.2-0.4-0.3-0.7-0.3-1.7h-3.3c0,1,0.2,2.1,0.6,2.9s0.8,1.5,1.4,2c0.6,0.5,1.3,0.9,2.1,1.2c0.8,0.2,1.6,0.4,2.5,0.4
	c0.9,0,1.8-0.1,2.6-0.3s1.5-0.5,2.2-0.9c0.6-0.4,1.1-1,1.5-1.6s0.6-1.4,0.6-2.4C124.6,66.7,124.5,66.2,124.2,65.7L124.2,65.7z"/>
</svg>
