<?xml version="1.0" encoding="utf-8"?>
<!-- Generator: Adobe Illustrator 24.0.0, SVG Export Plug-In . SVG Version: 6.00 Build 0)  -->
<svg version="1.1" id="Sketch" xmlns="http://www.w3.org/2000/svg" xmlns:xlink="http://www.w3.org/1999/xlink" x="0px" y="0px"
	 viewBox="0 0 128 128" style="enable-background:new 0 0 128 128;" xml:space="preserve">
<style type="text/css">
	.st0{fill:#740499;}
</style>
<title>Artboard 15</title>
<g id="line-wordmark">
	<path class="st0" d="M43.7,68.6v-0.3H41v0.4c0.2,4.1,2.9,6.8,7.8,6.8c4.6,0,7.8-2.4,7.8-6.1c0.1-1.7-0.6-3.3-2-4.3
		c-1.3-0.8-2.7-1.4-4.2-1.6L50,63.3l-0.4-0.1c-3.6-0.8-4.8-1.4-4.8-3.4s1.7-3.3,4.4-3.3c2.3-0.2,4.3,1.5,4.5,3.8c0,0.2,0,0.3,0,0.5
		v0.3h2.7v-0.3c-0.1-4.1-2.8-6.8-7.2-6.8S42,56.6,42,60c-0.1,1.7,0.6,3.3,2,4.3c1.3,0.8,2.7,1.3,4.2,1.4l0.3,0.1l0.3,0.1
		c1.2,0.2,2.4,0.5,3.5,1.1c1,0.5,1.5,1.5,1.4,2.6c0,2.2-1.8,3.4-5,3.4S43.9,71.3,43.7,68.6z M62.2,53.6v-0.3h-2.7V75h2.7v-4.1
		l2.8-2.8l5.1,6.7l0.1,0.1h3.3l-0.4-0.6L67,66.3l5.7-5.7l0.6-0.6h-3.7l-0.1,0.1l-7.3,7.3L62.2,53.6z M87.4,68.4h0.3v-0.3
		c0-0.1,0-0.2,0-0.3s0-0.2,0-0.3s0-0.2,0-0.2c0-4.4-2.9-7.6-7.2-7.6s-7.3,3.5-7.3,7.8s2.9,7.8,7.4,7.8c3.2,0.1,6-2,6.9-5l0.1-0.4
		h-2.8l-0.1,0.2c-0.6,1.7-2.3,2.8-4.2,2.8c-2.5,0-4.6-1.9-4.7-4.4L87.4,68.4z M76,66.1c0.3-2.3,2.3-4,4.6-3.9
		c2.3-0.1,4.2,1.6,4.4,3.9H76z M96.6,62.4h0.3v-2.4h-3.3V56H91v4.1h-2.8v2.4H91v8.4c0,2.8,1.4,4.2,4,4.2c0.4,0,0.8,0,1.2-0.1
		l0.4-0.1l0.3-0.1v-2.5l-0.4,0.1h-0.1h-0.3c-0.2,0-0.5,0.1-0.7,0.1h-0.1c-1.2,0-1.6-0.5-1.6-1.9v-8.2H96.6z M104.9,75.3
		c3.4,0.1,6.4-2.3,7-5.7l0.1-0.4h-2.7l-0.1,0.3c-0.4,2-2.2,3.4-4.3,3.3c-2.8,0-4.7-2.2-4.7-5.3s1.9-5.3,4.7-5.3
		c2.1-0.1,3.9,1.3,4.3,3.3l0.1,0.3h2.7l-0.1-0.4c-0.6-3.4-3.6-5.8-7-5.7c-4.3,0-7.4,3.5-7.4,7.8S100.6,75.3,104.9,75.3L104.9,75.3z
		 M116.9,53.7v-0.3h-2.7V75h2.8v-8.8c-0.2-2,1.3-3.9,3.3-4.1c0.2,0,0.4,0,0.6,0c2.3,0,3.4,1.3,3.4,3.8v9h2.7v-9.4
		c0-3.5-2.2-5.8-5.8-5.8c-1.6,0-3.1,0.5-4.2,1.6L116.9,53.7z"/>
	<path class="st0" d="M17.2,78.5h-0.4L0.8,60v-0.3l7-9.3L8,50.4l9-0.9l9,0.9l0.2,0.1l7,9.3V60L17.2,78.5z M1.3,59.9L17,78l15.6-18.1
		l-6.8-9L16.9,50l-8.8,0.9L1.3,59.9z"/>
	<path class="st0" d="M16.8,78.5L0.8,60L1,59.6h6.5l0.2,0.1l9.5,18.4L16.8,78.5z M1.5,60.1l14.2,16.4L7.3,60.1H1.5z"/>
	<path class="st0" d="M17.2,78.5l-0.4-0.3l9.5-18.5l0.2-0.1h6.5l0.2,0.4L17.2,78.5z M26.6,60.1l-8.5,16.4l14.2-16.4H26.6z"/>
	<path class="st0" d="M16.8,78.4L7.2,60l0.2-0.4h19l0.2,0.4l-9.5,18.4H16.8z M7.9,60.1L17,77.8l9.1-17.7H7.9z"/>
	<path class="st0" d="M7.7,60.1l-0.4-0.2l0.5-9.3l0.2-0.2l9-0.9l0.2,0.4L7.7,60.1z M8.2,50.8l-0.4,8.4l8.6-9.2L8.2,50.8z"/>
	<path class="st0" d="M26.3,60.1l-9.5-10.2l0.2-0.4l9,0.9l0.2,0.2l0.5,9.3L26.3,60.1z M17.6,50l8.6,9.2l-0.5-8.4L17.6,50z"/>
	<path class="st0" d="M32.9,60.1h-6.5l-0.2-0.2l-0.5-9.3l0.5-0.2l7,9.3L32.9,60.1z M26.7,59.6h5.7l-6.2-8.2L26.7,59.6z"/>
	<path class="st0" d="M7.5,60.1H1l-0.2-0.4l7-9.3l0.4,0.2l-0.5,9.3L7.5,60.1z M1.5,59.6h5.8l0.4-8.2L1.5,59.6z"/>
	<path class="st0" d="M26.5,60.1h-19l-0.2-0.4l9.5-10.2h0.4l9.5,10.2L26.5,60.1z M8,59.6h17.9L17,50L8,59.6z"/>
</g>
</svg>
