<?xml version="1.0" encoding="utf-8"?>
<!-- Generator: Adobe Illustrator 24.0.0, SVG Export Plug-In . SVG Version: 6.00 Build 0)  -->
<svg version="1.1" id="Layer_1" xmlns="http://www.w3.org/2000/svg" xmlns:xlink="http://www.w3.org/1999/xlink" x="0px" y="0px"
	 viewBox="0 0 40 40" style="enable-background:new 0 0 40 40;" xml:space="preserve">
<style type="text/css">
	.st0{fill:#740499;}
</style>
<path class="st0" d="M28.6,14.1L28.6,14.1L28.6,14.1c-0.1,0-0.1-0.1-0.1-0.1l0.8-4.7l3.6,3.6l-3.8,1.6l0,0l0,0l0,0
	C28.9,14.4,28.8,14.2,28.6,14.1z M33.8,13.8l3.9,3.9c0.8,0.8,1.2,1.2,1.4,1.7c0,0.1,0,0.1,0.1,0.2l-9.3-3.9l0,0c0,0-0.1,0-0.1-0.1
	s0-0.1,0.1-0.1l0,0C29.9,15.5,33.8,13.8,33.8,13.8z M39,20.9c-0.2,0.4-0.6,0.8-1.2,1.4l-4.4,4.4l-5.7-1.2l0,0c0,0-0.1,0-0.1-0.1
	c0-0.5-0.3-0.9-0.7-1.2v-0.1l0,0l1.1-6.5l0,0c0,0,0-0.1,0.1-0.1c0.5-0.1,0.9-0.3,1.2-0.7l0,0h0.1L39,20.9L39,20.9z M32.3,27.7
	l-7.2,7.2l1.2-7.6l0,0l0,0c0,0,0,0,0.1,0l0,0c0.3-0.1,0.5-0.3,0.7-0.5l0.1-0.1l0,0L32.3,27.7L32.3,27.7z M23.6,36.4l-0.8,0.8
	l-9-12.9l0,0c0,0,0,0,0-0.1l0,0l0,0l0.1-0.1l0,0l0,0c0,0,0,0,0.1-0.1h0.1l9.9,2h0.1l0,0c0.1,0.5,0.5,1,1,1.2c0,0,0,0,0,0.1l0,0
	C25,28.1,23.9,34.6,23.6,36.4z M21.9,38c-0.6,0.6-0.9,0.9-1.3,1s-0.8,0.1-1.2,0c-0.5-0.1-0.9-0.5-1.7-1.4l-9-9L11,25l0,0h0.1
	c0.5,0.2,1.1,0.1,1.6-0.1h0.1l0,0L21.9,38L21.9,38z M7.9,27.9l-2.1-2.1l4.1-1.7l0,0c0,0,0.1,0,0.1,0.1s0.1,0.1,0.1,0.2l0,0l0,0
	L7.9,27.9L7.9,27.9z M4.9,24.9l-2.6-2.6c-0.4-0.4-0.8-0.8-1-1l7.9,1.6l0,0c0,0,0.1,0,0.1,0.1l-0.1,0.1l0,0C9.2,23,4.9,24.9,4.9,24.9
	z M0.8,19.9c0-0.2,0-0.3,0.1-0.5c0.1-0.5,0.5-0.9,1.4-1.7l3.3-3.3c1.5,2.2,3.1,4.5,4.6,6.7c0,0,0.1,0.1,0,0.1
	c-0.1,0.2-0.3,0.3-0.4,0.5c0,0,0,0-0.1,0.1l0,0l0,0L0.8,19.9L0.8,19.9z M6.5,13.5L11,9c0.4,0.2,2,0.8,3.3,1.4c1,0.4,2,0.8,2.3,1
	c0,0,0.1,0,0.1,0.1c0,0,0,0,0,0.1c-0.1,0.7,0.1,1.3,0.5,1.8v0.1l0,0l-4.6,7.1l0,0h-0.1c-0.2,0-0.4-0.1-0.5-0.1c-0.2,0-0.3,0-0.5,0.1
	l0,0c0,0,0,0-0.1,0c0,0,0,0,0-0.1C11.3,20.5,6.5,13.5,6.5,13.5z M11.9,8.1l5.8-5.8c0.8-0.8,1.2-1.2,1.7-1.4c0.4-0.1,0.8-0.1,1.2,0
	c0.5,0.1,0.9,0.5,1.7,1.4l1.3,1.3L19.5,10l0,0h-0.1c-0.7-0.2-1.4-0.1-1.9,0.4h-0.1C16.7,10.1,12.5,8.3,11.9,8.1z M24.4,4.4l3.8,3.8
	l-0.9,5.7l0,0l0,0l0,0c-0.2,0.1-0.4,0.2-0.5,0.3l0,0l0,0l0,0L21,11.7l0,0c0,0-0.1,0-0.1-0.1c0-0.3-0.1-0.6-0.3-0.9
	c0,0-0.1-0.1,0-0.1C20.3,10.7,24.4,4.4,24.4,4.4z M20.5,13l5.5,2.3c0,0,0.1,0,0.1,0.1c0,0,0,0,0,0.1s0,0.2,0,0.3V16
	c0,0,0,0.1-0.1,0.1l0,0c-0.9,0.4-12.1,5.2-12.1,5.2s0,0-0.1,0v-0.1l0,0l4.5-6.9l0,0l0.1-0.1l0,0c0.1,0,0.2,0,0.3,0
	c0.7,0,1.3-0.3,1.7-0.9C20.4,13,20.4,13,20.5,13C20.4,13,20.5,13,20.5,13z M14.2,22.2L26.5,17l0,0c0.1,0.1,0.1,0.1,0.2,0.2l0,0
	c0,0,0,0,0.1,0.1l0,0l-1.1,6.5l0,0c0,0,0,0.1-0.1,0.1c-0.6,0-1.1,0.4-1.4,0.8l0,0c0,0,0,0,0,0.1c0,0,0,0-0.1,0l-9.8-2
	C14.4,22.7,14.2,22.2,14.2,22.2z"/>
</svg>
