<?xml version="1.0" encoding="utf-8"?>
<!-- Generator: Adobe Illustrator 24.0.0, SVG Export Plug-In . SVG Version: 6.00 Build 0)  -->
<svg version="1.1" id="Layer_1" xmlns="http://www.w3.org/2000/svg" xmlns:xlink="http://www.w3.org/1999/xlink" x="0px" y="0px"
	 viewBox="0 0 128 128" style="enable-background:new 0 0 128 128;" xml:space="preserve">
<style type="text/css">
	.st0{fill:#740499;}
</style>
<path class="st0" d="M19.7,26l8.1,90.5l36.2,10.1l36.3-10.1l8.1-90.5C108.3,26,19.7,26,19.7,26z M88.9,76.5l-2.3,21.9l0,1.9
	L64,106.5v0l0,0l-22.7-6.2L39.7,83h11.1l0.8,8.8L64,95.1l0,0v0l12.4-3.5L77.7,77H51.8l-0.2-2.4L51.1,69l-0.3-3h27.9l1-11H37.2
	L37,52.4l-0.5-6L36.2,43h55.6l-0.3,3.3L88.9,76.5"/>
<path class="st0" d="M89,14.4L81.9,6H89V1H73v4.4l8.4,7.6H73v5h16V14.4z M70,14.4L63.2,6H70V1H55v4.4l7.7,7.6H55v5h15V14.4z M52,13
	h-8V6h8V1H38v17h14V13z"/>
</svg>
