<?xml version="1.0" encoding="utf-8"?>
<!-- Generator: Adobe Illustrator 24.0.0, SVG Export Plug-In . SVG Version: 6.00 Build 0)  -->
<svg version="1.1" id="Layer_1" xmlns="http://www.w3.org/2000/svg" xmlns:xlink="http://www.w3.org/1999/xlink" x="0px" y="0px"
	 viewBox="0 0 256 289" style="enable-background:new 0 0 256 289;" xml:space="preserve">
<style type="text/css">
	.st0{fill:#740499;}
</style>
<g>
	<path class="st0" d="M128,288.5c-4,0-7.7-1.1-11.1-2.9l-35.2-20.9c-5.3-2.9-2.7-4-1.1-4.5c7.2-2.4,8.5-2.9,15.9-7.2
		c0.8-0.5,1.9-0.3,2.7,0.3l27,16.2c1.1,0.5,2.4,0.5,3.2,0l105.7-61.2c1.1-0.5,1.6-1.6,1.6-2.9V83.1c0-1.3-0.5-2.4-1.6-2.9l-105.7-61
		c-1.1-0.5-2.4-0.5-3.2,0l-105.7,61c-1.1,0.5-1.6,1.9-1.6,2.9v122.2c0,1.1,0.5,2.4,1.6,2.9l28.9,16.7c15.6,8,25.4-1.3,25.4-10.6
		V93.7c0-1.6,1.3-3.2,3.2-3.2h13.5c1.6,0,3.2,1.3,3.2,3.2v120.6c0,20.9-11.4,33.1-31.3,33.1c-6.1,0-10.9,0-24.4-6.6l-27.8-15.9
		C4.2,220.9,0,213.5,0,205.5V83.3C0,75.4,4.2,68,11.1,64L116.9,2.8c6.6-3.7,15.6-3.7,22.3,0L244.9,64c6.9,4,11.1,11.4,11.1,19.3
		v122.2c0,8-4.2,15.4-11.1,19.3l-105.7,61.2C135.7,287.7,131.7,288.5,128,288.5L128,288.5z M160.6,204.5
		c-46.4,0-55.9-21.2-55.9-39.2c0-1.6,1.3-3.2,3.2-3.2h13.8c1.6,0,2.9,1.1,2.9,2.7c2.1,14,8.2,20.9,36.3,20.9c22.3,0,31.8-5,31.8-17
		c0-6.9-2.7-11.9-37.4-15.4c-28.9-2.9-46.9-9.3-46.9-32.3c0-21.5,18-34.2,48.2-34.2c33.9,0,50.6,11.7,52.7,37.1
		c0,0.8-0.3,1.6-0.8,2.4c-0.5,0.5-1.3,1.1-2.1,1.1h-13.8c-1.3,0-2.7-1.1-2.9-2.4c-3.2-14.6-11.4-19.3-33.1-19.3
		c-24.4,0-27.3,8.5-27.3,14.8c0,7.7,3.4,10.1,36.3,14.3c32.6,4.2,48,10.3,48,33.1C213.3,191.2,194.3,204.5,160.6,204.5L160.6,204.5z
		"/>
</g>
</svg>
