<?xml version="1.0" encoding="utf-8"?>
<!-- Generator: Adobe Illustrator 24.0.0, SVG Export Plug-In . SVG Version: 6.00 Build 0)  -->
<svg version="1.1" id="Layer_1" xmlns="http://www.w3.org/2000/svg" xmlns:xlink="http://www.w3.org/1999/xlink" x="0px" y="0px"
	 viewBox="0 0 128 128" style="enable-background:new 0 0 128 128;" xml:space="preserve">
<style type="text/css">
	.st0{fill:#740499;}
</style>
<path class="st0" d="M48,79l0.2,0.1l0.3,0.2c0.4,0.2,0.9,0.4,1.3,0.6l0.3,0.1c0.5,0.2,1,0.4,1.6,0.6l0.4,0.1c0.5,0.2,1,0.4,1.5,0.5
	l0.2,0.1c0.5,0.2,1.1,0.4,1.6,0.5l0.4,0.1c0.6,0.2,1.1,0.4,1.7,0.5c36.6,6.7,47.2-22,47.2-22c-8.9,11.6-24.7,14.7-39.7,11.3
	c-0.6-0.1-1.1-0.3-1.7-0.5l-0.4-0.1c-0.5-0.2-1.1-0.3-1.6-0.5l-0.2-0.1c-0.5-0.2-1-0.3-1.4-0.5L59.1,70c-0.5-0.2-1-0.4-1.5-0.6
	l-0.3-0.1c-0.4-0.2-0.9-0.4-1.3-0.6l-0.4-0.2c-0.3-0.2-0.7-0.3-1-0.5l-0.7-0.3c-0.4-0.2-0.8-0.4-1.2-0.7l-0.4-0.2
	c-0.5-0.3-1-0.6-1.6-1l-0.4-0.3c-0.4-0.2-0.7-0.5-1.1-0.7l-0.4-0.3c-0.4-0.2-0.7-0.5-1.1-0.8l-0.5-0.4c-0.3-0.2-0.6-0.5-0.9-0.7
	L46,62.2c-0.4-0.3-0.8-0.7-1.2-1l-0.1-0.1c-0.4-0.4-0.8-0.7-1.2-1.1L43,59.7c-0.3-0.3-0.6-0.6-0.9-0.9l-0.3-0.3
	c-0.4-0.4-0.7-0.8-1.1-1.2l-0.1-0.1c-0.4-0.4-0.7-0.8-1.1-1.3l-0.3-0.3c-0.3-0.3-0.5-0.7-0.8-1l-0.3-0.4c-0.3-0.4-0.6-0.8-0.9-1.2
	c-8.3-11.4-11.3-27-4.7-39.9l-5.9,7.5c-7.6,10.9-6.6,25-0.8,36.5l0.4,0.8l0.3,0.5l0.2,0.3l0.3,0.5c0.2,0.3,0.4,0.6,0.5,0.9l0.3,0.5
	c0.2,0.3,0.4,0.7,0.6,1l0.3,0.4c0.3,0.4,0.6,0.9,0.9,1.3l0,0l0.2,0.2c0.3,0.4,0.6,0.8,0.8,1.1l0.3,0.4c0.3,0.3,0.5,0.6,0.8,1
	l0.3,0.4c0.4,0.4,0.7,0.8,1.1,1.2l0,0l0,0c0.4,0.4,0.7,0.8,1.1,1.2l0.4,0.4c0.3,0.3,0.6,0.6,0.9,0.9l0.4,0.3
	c0.4,0.4,0.8,0.7,1.2,1.1l0,0l0.2,0.2c0.4,0.3,0.7,0.6,1.1,0.9l0.5,0.4c0.3,0.2,0.6,0.5,0.9,0.7l0.5,0.4c0.3,0.2,0.7,0.5,1,0.7
	l0.4,0.3l0.1,0.1c0.3,0.2,0.7,0.4,1,0.7l0.4,0.3c0.5,0.3,1,0.6,1.6,1l0.4,0.2c0.4,0.2,0.8,0.4,1.2,0.7l0.6,0.3
	C47.1,78.6,48,79,48,79z M51.7,42.2c0.8,1.2,1.7,2.6,2.8,3.5c0.4,0.4,0.8,0.9,1.2,1.3l0.3,0.3c0.4,0.4,0.8,0.8,1.3,1.2l0.1,0l0,0
	c0.5,0.4,1,0.8,1.5,1.2l0.3,0.3c0.5,0.4,1,0.8,1.5,1.1l0,0l0.7,0.5l0.3,0.2c0.4,0.2,0.8,0.5,1.1,0.7l0.2,0.1c0.3,0.2,0.7,0.4,1,0.6
	l0.4,0.2l0.7,0.4l0.1,0c0.5,0.2,1,0.5,1.5,0.7l0.3,0.1c0.4,0.2,0.8,0.3,1.2,0.5l0.5,0.2c0.4,0.1,0.7,0.3,1.1,0.4l0.5,0.2
	c0.5,0.2,1,0.4,1.6,0.5c28.2,4.7,34.7-17.1,34.7-17.1c-5.9,8.5-17.2,12.5-29.4,9.3c-0.5-0.1-1.1-0.3-1.6-0.5L75.2,48
	c-0.4-0.1-0.7-0.2-1.1-0.4l-0.5-0.2c-0.4-0.2-0.8-0.3-1.2-0.5L72,46.8c-0.5-0.2-1-0.4-1.5-0.7l-0.7-0.4l-0.4-0.2
	c-0.3-0.2-0.6-0.3-0.9-0.5l-0.2-0.1c-0.4-0.2-0.8-0.5-1.1-0.7l-0.3-0.2L66,43.4c-0.5-0.4-1-0.7-1.5-1.1L64.1,42
	c-5.3-4.2-9.5-9.9-11.5-16.4c-2.1-6.7-1.6-14.3,2-20.4l-4.5,6.3c-5.5,7.9-5.2,18.4-0.9,26.7C50,39.6,50.8,40.9,51.7,42.2L51.7,42.2z
	 M81.4,32.5l0.7,0.2l0.3,0.1c0.3,0.1,0.7,0.2,1,0.3c15.6,3,19.8-8,20.9-9.6c-3.7,5.3-9.9,6.6-17.6,4.8c-0.6-0.1-1.3-0.4-1.8-0.6
	c-0.7-0.3-1.5-0.6-2.2-0.9c-1.4-0.7-2.6-1.4-3.8-2.3c-6.8-5.2-11.1-15.1-6.6-23.1l-2.4,3.3c-3.2,4.7-3.5,10.6-1.3,15.9
	C70.9,26.1,75.8,30.4,81.4,32.5L81.4,32.5z M66.4,96.3h-4.2c-0.2,0-0.5,0.2-0.5,0.4l-1.5,6.9l-1.5,6.9c0,0.2-0.3,0.4-0.5,0.4h-3
	c-3,0-2.6-2-2-4.9l0-0.1l0.1-0.4l0-0.1l0.1-0.7l0.1-0.8l0.2-0.8l0.7-3.3l0.7-3.3c0-0.2-0.1-0.4-0.3-0.4h-4.3c-0.2,0-0.5,0.2-0.5,0.4
	l-0.9,4.4l-0.9,4.4l0,0l-0.1,0.4c-1.1,4.9-0.8,9.6,5,9.7l0.2,0h9.2c0.2,0,0.5-0.2,0.5-0.4l2-9.3l2-9.3
	C66.7,96.5,66.6,96.3,66.4,96.3z M21.1,96.2h-4.6c-0.2,0-0.5,0.2-0.5,0.4l-0.4,1.9l-0.4,1.9c-0.1,0.2,0.1,0.4,0.3,0.4h4.7
	c0.2,0,0.5-0.2,0.5-0.4l0.4-1.9l0.4-1.9C21.5,96.4,21.3,96.2,21.1,96.2z M19.8,102.3h-4.7c-0.2,0-0.5,0.2-0.5,0.4l-0.7,2.9l-0.7,2.9
	l-0.2,0.8l-0.6,3l-0.6,3c0,0.2-0.1,0.6-0.2,0.8c0,0-0.9,2.6-2.3,2.6l-0.2,0l-1.3,0h0c-0.2,0-0.5,0.2-0.5,0.4l-0.5,2l-0.5,2
	c-0.1,0.2,0.1,0.4,0.3,0.4c0.8,0,2.7,0,3.8,0c3.7,0,5.6-2,6.8-7.9l1.5-6.7l1.4-6.3C20.1,102.5,20,102.3,19.8,102.3z M105.9,100.7
	l-0.2-0.8l-0.2-0.8l-0.1-0.4c-0.4-1.5-1.5-2.3-3.9-2.3l-3.8,0l-3.5,0h-3.9c-0.2,0-0.5,0.2-0.5,0.4l-0.2,0.8l-0.2,1l-0.1,0.3
	l-1.8,8.2l-1.7,7.8c-0.1,0.2-0.1,0.5,0,0.6c0,0.1,0.5,0.2,0.7,0.2h3.5c0.2,0,0.5,0,0.7-0.1s0.3-0.5,0.4-0.7l0.6-3.1l0.6-3.1l0,0
	l0.1-0.4l0.8-3.6l0.7-3.1c0.1-0.2,0.3-0.4,0.5-0.4l11.1,0C105.8,101.1,105.9,100.9,105.9,100.7z M120.1,93.5l-0.9,0h-3.5
	c-0.2,0-0.5,0.2-0.7,0.4l-7.8,11.5c-0.1,0.2-0.3,0.2-0.3-0.1l-0.6-2.5c-0.1-0.2-0.3-0.4-0.5-0.4h-5c-0.2,0-0.4,0.2-0.3,0.4l2.3,7.9
	c0.1,0.2,0.1,0.6,0,0.8l-1,3.8c-0.1,0.2,0.1,0.4,0.3,0.4h5c0.2,0,0.5-0.2,0.5-0.4l1-3.8c0.1-0.2,0.2-0.6,0.4-0.8l12.7-16.9
	c0.1-0.2,0.1-0.3-0.2-0.3L120.1,93.5z M80.1,103.4L80.1,103.4c0,0.2-0.3,0.4-0.5,0.4h-6.4c-0.2,0-0.3-0.2-0.3-0.3l0,0l0,0l0,0l0-0.1
	c0.6-1.6,1.9-2.7,4.2-2.7C79.7,100.7,80.2,101.9,80.1,103.4z M78.2,96c-8.2,0-10.2,5-11.2,10c-1.1,5.1-1,9.9,7.5,9.9h1l0.3,0h0.1
	l1,0h0c2.2,0,4.5,0,5.4,0c0.2,0,0.5-0.2,0.5-0.4l0.3-1.7l0.1-0.3l0.4-2c0-0.2-0.1-0.4-0.3-0.4h-7.6c-3,0-3.9-0.8-3.6-3.2h12.2l0,0
	l0,0c0.2,0,0.4-0.1,0.4-0.3l0-0.1l0,0C86.5,100.6,86,96,78.2,96z M39.4,103.4l-0.1,0.4v0l-0.9,3.3l-0.9,3.3
	c-0.1,0.2-0.3,0.4-0.5,0.4H32c-3.7,0-4.6-2.9-3.7-7.2c0.9-4.4,2.7-7.1,6.3-7.4C39.6,95.8,40.6,99.3,39.4,103.4z M42.7,110.5
	c0,0,2.3-5.6,2.8-8.8c0.7-4.3-1.5-10.6-9.8-10.6c-8.3,0-11.9,6-13.3,12.5c-1.4,6.6,0.4,12.3,8.7,12.2l6.5,0l6.1,0
	c0.2,0,0.5-0.2,0.5-0.4l1.1-4c0.1-0.2-0.1-0.4-0.3-0.4l-1,0l-1,0C42.8,110.9,42.7,110.7,42.7,110.5L42.7,110.5z M83.8,106.7
	c0,0.2-0.1,0.3-0.3,0.3c-0.2,0-0.3-0.1-0.3-0.3c0-0.2,0.1-0.3,0.3-0.3S83.8,106.6,83.8,106.7z"/>
</svg>
