<?xml version="1.0" encoding="utf-8"?>
<!-- Generator: Adobe Illustrator 24.0.0, SVG Export Plug-In . SVG Version: 6.00 Build 0)  -->
<svg version="1.1" id="Layer_1" xmlns="http://www.w3.org/2000/svg" xmlns:xlink="http://www.w3.org/1999/xlink" x="0px" y="0px"
	 viewBox="0 0 128 128" style="enable-background:new 0 0 128 128;" xml:space="preserve">
<style type="text/css">
	.st0{fill:#740499;}
</style>
<g>
	<circle class="st0" cx="64" cy="47.5" r="9.3"/>
	<path class="st0" d="M64,81.7C71.3,88.8,78.5,93,84.3,93c1.9,0,3.7-0.4,5.2-1.3c5.2-3,7.1-10.5,5.3-21.2c-0.3-1.9-0.7-3.8-1.2-5.8
		c2-0.6,3.8-1.2,5.6-1.8c10.1-3.9,15.7-9.3,15.7-15.2c0-6-5.6-11.4-15.7-15.2c-1.8-0.7-3.6-1.3-5.6-1.8c0.5-2,0.9-3.9,1.2-5.8
		C96.5,14,94.6,6.4,89.4,3.4c-1.5-0.9-3.3-1.3-5.2-1.3c-5.7,0-13,4.2-20.3,11.3C56.7,6.3,49.5,2.1,43.7,2.1c-1.9,0-3.7,0.4-5.2,1.3
		c-5.2,3-7.1,10.5-5.3,21.2c0.3,1.9,0.7,3.8,1.2,5.8c-2,0.6-3.8,1.2-5.6,1.8c-10.1,3.9-15.7,9.3-15.7,15.2c0,6,5.6,11.4,15.7,15.2
		c1.8,0.7,3.6,1.3,5.6,1.8c-0.5,2-0.9,3.9-1.2,5.8c-1.7,10.7,0.2,18.3,5.3,21.2c1.5,0.9,3.3,1.3,5.2,1.3
		C49.5,92.9,56.7,88.7,64,81.7L64,81.7z M58.4,68.2c1.8,0.1,3.7,0.1,5.6,0.1c1.9,0,3.8,0,5.6-0.1c-1.8,2.4-3.7,4.6-5.6,6.7
		C62.1,72.8,60.2,70.6,58.4,68.2z M46,57.9c1,1.7,1.9,3.3,3,4.9c-3.1-0.4-6-0.9-8.8-1.5c0.9-2.7,1.9-5.5,3.1-8.3
		C44.1,54.6,45,56.3,46,57.9z M40.2,33.8c2.8-0.6,5.7-1.1,8.8-1.5c-1,1.6-2,3.2-3,4.9s-1.9,3.3-2.7,5C42,39.3,41,36.5,40.2,33.8z
		 M45.7,47.5c1.3-2.7,2.7-5.4,4.3-8.1c1.5-2.6,3.2-5.2,4.9-7.8c3-0.2,6-0.3,9.1-0.3c3.2,0,6.2,0.1,9.1,0.3c1.8,2.6,3.4,5.2,4.9,7.8
		c1.6,2.7,3,5.4,4.3,8.1c-1.3,2.7-2.7,5.4-4.3,8.1c-1.5,2.6-3.2,5.2-4.9,7.8c-3,0.2-6,0.3-9.1,0.3c-3.2,0-6.2-0.1-9.1-0.3
		c-1.8-2.6-3.4-5.2-4.9-7.8C48.4,52.9,47,50.2,45.7,47.5z M84.8,42.1l-2.7-5c-1-1.7-1.9-3.3-3-4.9c3.1,0.4,6,0.9,8.8,1.5
		C87,36.5,86,39.3,84.8,42.1z M84.8,52.9c1.2,2.8,2.2,5.6,3.1,8.3c-2.8,0.6-5.7,1.1-8.8,1.5c1-1.6,2-3.2,3-4.9
		C83,56.3,83.9,54.6,84.8,52.9z M87.1,87.6c-0.8,0.5-1.8,0.7-2.9,0.7c-4.9,0-11-4-17-10c2.9-3.1,5.7-6.6,8.5-10.5
		c4.7-0.4,9.2-1.1,13.4-2.1c0.5,1.8,0.8,3.6,1.1,5.4C91.6,79.6,90.5,85.7,87.1,87.6z M92.3,34.9c11.2,3.2,17.9,8.1,17.9,12.6
		c0,3.9-4.6,7.8-12.7,10.9c-1.6,0.6-3.4,1.2-5.2,1.7c-1.3-4.1-2.9-8.3-4.9-12.6C89.4,43.2,91.1,39,92.3,34.9z M84.3,6.7
		c1.1,0,2,0.2,2.9,0.7c3.3,1.9,4.5,7.9,3.1,16.5c-0.3,1.7-0.7,3.5-1.1,5.4c-4.2-0.9-8.7-1.6-13.4-2.1c-2.7-3.9-5.6-7.4-8.5-10.5
		C73.3,10.8,79.4,6.7,84.3,6.7z M69.6,26.8c-1.8-0.1-3.7-0.1-5.6-0.1s-3.8,0-5.6,0.1c1.8-2.4,3.7-4.6,5.6-6.7
		C65.9,22.2,67.8,24.5,69.6,26.8z M40.9,7.4c0.8-0.5,1.8-0.7,2.9-0.7c4.9,0,11,4,17,10c-2.9,3.1-5.7,6.6-8.5,10.5
		c-4.7,0.4-9.2,1.1-13.4,2.1c-0.5-1.8-0.8-3.6-1.1-5.4C36.4,15.4,37.5,9.4,40.9,7.4z M35.7,60.1C24.5,56.9,17.8,52,17.8,47.5
		c0-3.9,4.6-7.8,12.7-10.9c1.6-0.6,3.4-1.2,5.2-1.7c1.3,4.1,2.9,8.3,4.9,12.6C38.6,51.8,36.9,56.1,35.7,60.1z M37.8,71.1
		c0.3-1.7,0.7-3.5,1.1-5.4c4.2,0.9,8.7,1.6,13.4,2.1c2.7,3.9,5.6,7.4,8.5,10.5c-6,5.9-12.1,10-17,10c-1.1,0-2-0.2-2.9-0.7
		C37.5,85.7,36.4,79.6,37.8,71.1z M33.6,112.3c2.2-2.7,2.3-5.7,1.1-8.7s-3.7-4.4-6.8-4.5c-3.7-0.1-7.5,0-11.2,0H16V125h3v-9.8h4.7
		c0.6,0,1.1,0.2,1.4,0.7l6,9.3c0.1,0.2,0.4,0.5,0.6,0.5h3.9c-2.4-3.7-4.7-7.2-7.1-10.8C30.6,114.6,32.4,113.9,33.6,112.3z M19,112.1
		v-9.9h1.1c2.3,0,4.7-0.1,7,0.1c2.7,0.1,4.6,2.2,4.6,4.9s-2.2,4.8-4.9,4.9C24.4,112.2,22,112.1,19,112.1z M57.7,113.4
		c-1.6-7-8-8.8-12.9-6.6c-3.8,1.7-5.5,5-5.6,9.1c-0.1,3.1,0.8,5.9,3.2,8c2.7,2.4,6,2.7,9.4,2.1c1.9-0.4,3.6-1.3,4.9-2.7
		c-0.5-0.7-1-1.4-1.5-2c-2.8,2.4-5.9,3.2-9.3,1.6c-2.2-1.1-3.3-3.8-3.5-5.8h15.5v-1.3C58,114.9,57.9,114.1,57.7,113.4z M42.6,115
		c-0.3-3,2.7-6.2,6-6.2c3.8-0.1,6.2,2.2,6.3,6.2H42.6z M73.3,106.3c-1.5-0.3-3.1-0.4-4.6-0.3c-2.4,0.2-4.5,1.3-6.2,3.1
		c0.5,0.7,0.9,1.4,1.5,2.2c0.2-0.2,0.4-0.4,0.6-0.5c1.6-1.5,3.5-2.3,5.8-2.1c1.8,0.1,3.5,0.7,4,2.5c0.4,1.4,0.3,2.9,0.4,4.4
		c-0.3,0-0.4-0.1-0.5-0.2c-2.4-2-5.1-2.4-8-1.7c-2.7,0.7-4.4,2.8-4.6,5.5c-0.2,3.1,1.2,5.4,3.9,6.5c1.7,0.7,3.6,0.7,5.4,0.3
		c1.4-0.3,2-1.1,4-2.2v1.3h2.8c0-4,0.1-8.9,0-13.5C77.8,108.7,76.1,106.9,73.3,106.3z M74.7,118.9c-0.1,0.3,0,0.6,0,0.9
		c0,2.1-0.5,2.8-2.5,3.6c-1.4,0.5-2.9,0.7-4.4,0.2c-1.7-0.5-2.9-2-2.9-3.7c-0.1-1.7,1-3.4,2.7-3.9c2.3-0.8,4.4-0.3,6.3,1.1
		C74.5,117.6,74.9,118.1,74.7,118.9z M90.3,109c2.6-0.8,5-0.3,6.8,1.9l0.3,0.2c0.7-0.6,1.3-1.2,2.1-1.9c-0.3-0.3-0.4-0.5-0.6-0.8
		c-2.9-3.1-8.6-3.5-12.1-1c-4.9,3.6-4.8,10.6-2.4,14.3c2.3,3.5,5.6,4.7,9.5,4.2c2.3-0.3,4.2-1.4,5.7-3.3c-0.7-0.6-1.4-1.2-2.1-1.9
		c-0.2,0.2-0.3,0.3-0.4,0.5c-2.7,3-7.2,2.7-9.6-0.5c-1.4-1.9-1.7-4.1-1.3-6.3C86.4,111.9,87.7,109.9,90.3,109L90.3,109z
		 M111.1,122.6c-0.2,0.1-0.3,0.2-0.3,0.2c-0.8,0.6-1.6,0.7-2.5,0.4c-0.9-0.4-1-1.2-1.1-2v-11.4c0-0.2,0,0.2,0.1-0.8h3.8v-3h-4v-5h-3
		v5.4h-2.6c-0.2,0-0.5,0.2-0.5,0.4c-0.1,0.7,0,1.2,0,2.2h3.2v12.8c0,1.6,0.4,3,1.8,3.8c1.5,0.9,4.4,0.7,5.7-0.4
		c0.2-0.1,0.3-0.5,0.3-0.6C111.7,124,111.4,123.3,111.1,122.6z"/>
</g>
</svg>
