<?xml version="1.0" encoding="utf-8"?>
<!-- Generator: Adobe Illustrator 24.0.0, SVG Export Plug-In . SVG Version: 6.00 Build 0)  -->
<svg version="1.1" id="Layer_1" xmlns="http://www.w3.org/2000/svg" xmlns:xlink="http://www.w3.org/1999/xlink" x="0px" y="0px"
	 viewBox="0 0 128 128" style="enable-background:new 0 0 128 128;" xml:space="preserve">
<style type="text/css">
	.st0{fill:#740499;}
</style>
<path class="st0" d="M114.3,80.7c-0.3,0-0.6-0.1-0.8-0.2l-2.7-1.6c-0.4-0.2-0.2-0.3-0.1-0.3c0.5-0.2,0.6-0.2,1.2-0.5
	c0.1,0,0.1,0,0.2,0l2,1.2c0.1,0,0.2,0,0.2,0l7.9-4.6c0.1,0,0.1-0.1,0.1-0.2v-9.2c0-0.1,0-0.2-0.1-0.2l-7.9-4.6c-0.1,0-0.2,0-0.2,0
	l-7.9,4.6c-0.1,0-0.1,0.1-0.1,0.2v9.2c0,0.1,0,0.2,0.1,0.2l2.2,1.3c1.2,0.6,1.9-0.1,1.9-0.8v-9c0-0.1,0.1-0.2,0.2-0.2h1
	c0.1,0,0.2,0.1,0.2,0.2v9c0,1.6-0.9,2.5-2.3,2.5c-0.5,0-0.8,0-1.8-0.5l-2.1-1.2c-0.5-0.3-0.8-0.9-0.8-1.4v-9.2
	c0-0.6,0.3-1.2,0.8-1.4l7.9-4.6c0.5-0.3,1.2-0.3,1.7,0l7.9,4.6c0.5,0.3,0.8,0.9,0.8,1.4v9.2c0,0.6-0.3,1.1-0.8,1.4l-7.9,4.6
	C114.9,80.7,114.6,80.7,114.3,80.7 M116.8,74.4c-3.5,0-4.2-1.6-4.2-2.9c0-0.1,0.1-0.2,0.2-0.2h1c0.1,0,0.2,0.1,0.2,0.2
	c0.2,1,0.6,1.6,2.7,1.6c1.7,0,2.4-0.4,2.4-1.3c0-0.5-0.2-0.9-2.8-1.1c-2.2-0.2-3.5-0.7-3.5-2.4c0-1.6,1.3-2.6,3.6-2.6
	c2.5,0,3.8,0.9,4,2.8c0,0.1,0,0.1-0.1,0.2c0,0-0.1,0.1-0.2,0.1h-1c-0.1,0-0.2-0.1-0.2-0.2c-0.2-1.1-0.8-1.5-2.5-1.5
	c-1.8,0-2,0.6-2,1.1c0,0.6,0.2,0.7,2.7,1.1c2.4,0.3,3.6,0.8,3.6,2.5C120.7,73.4,119.3,74.4,116.8,74.4 M98,68.4
	c0.3-0.2,0.5-0.5,0.5-0.9v-2.4c0-0.4-0.2-0.7-0.5-0.9l-8.4-4.9c-0.3-0.2-0.7-0.2-1,0l-8.4,4.9c-0.3,0.2-0.5,0.5-0.5,0.9v9.7
	c0,0.4,0.2,0.7,0.5,0.9l8.4,4.8c0.3,0.2,0.7,0.2,1,0l5.1-2.8c0.2-0.1,0.3-0.3,0.3-0.4c0-0.2-0.1-0.4-0.3-0.4L86.1,72
	c-0.2-0.1-0.3-0.3-0.3-0.4v-3c0-0.2,0.1-0.3,0.3-0.4l2.6-1.5c0.2-0.1,0.3-0.1,0.5,0l2.6,1.5c0.2,0.1,0.3,0.3,0.3,0.4v2.4
	c0,0.2,0.1,0.4,0.3,0.4c0.2,0.1,0.4,0.1,0.5,0L98,68.4 M89,68c0.1,0,0.1,0,0.2,0l1.6,0.9c0.1,0,0.1,0.1,0.1,0.2v1.9
	c0,0.1,0,0.1-0.1,0.2L89.2,72c-0.1,0-0.1,0-0.2,0l-1.6-0.9c-0.1,0-0.1-0.1-0.1-0.2v-1.9c0-0.1,0-0.1,0.1-0.2L89,68 M67.1,71.9
	c0,0.1,0,0.2-0.1,0.2l-2.9,1.7c-0.1,0-0.2,0-0.3,0l-2.9-1.7c-0.1,0-0.1-0.1-0.1-0.2v-3.3c0-0.1,0-0.2,0.1-0.2l2.9-1.7
	c0.1,0,0.2,0,0.3,0l2.9,1.7c0.1,0,0.1,0.1,0.1,0.2L67.1,71.9L67.1,71.9z M67.9,47.1c-0.2-0.1-0.3-0.1-0.5,0
	c-0.2,0.1-0.3,0.3-0.3,0.4v12.9c0,0.1-0.1,0.2-0.2,0.3c-0.1,0.1-0.2,0.1-0.4,0l-2.1-1.2c-0.3-0.2-0.7-0.2-1,0L55,64.4
	c-0.3,0.2-0.5,0.5-0.5,0.9V75c0,0.4,0.2,0.7,0.5,0.9l8.4,4.9c0.3,0.2,0.7,0.2,1,0l8.4-4.9c0.3-0.2,0.5-0.5,0.5-0.9V50.8
	c0-0.4-0.2-0.7-0.5-0.9L67.9,47.1 M38.2,59.4c0.3-0.2,0.7-0.2,1,0l8.4,4.9c0.3,0.2,0.5,0.5,0.5,0.9v9.7c0,0.4-0.2,0.7-0.5,0.9
	l-8.4,4.9c-0.3,0.2-0.7,0.2-1,0l-8.4-4.9c-0.3-0.2-0.5-0.5-0.5-0.9v-9.7c0-0.4,0.2-0.7,0.5-0.9L38.2,59.4 M22.9,65.1
	c0-0.4-0.2-0.7-0.5-0.9L14,59.3c-0.1-0.1-0.3-0.1-0.5-0.1h-0.1c-0.2,0-0.3,0-0.5,0.1l-8.4,4.8c-0.3,0.2-0.5,0.5-0.5,0.9l0,13
	c0,0.2,0.1,0.4,0.3,0.4c0.2,0.1,0.3,0.1,0.5,0l5-2.9c0.3-0.2,0.5-0.5,0.5-0.9v-6.1c0-0.4,0.2-0.7,0.5-0.9l2.1-1.2
	c0.2-0.1,0.3-0.1,0.5-0.1c0.2,0,0.4,0,0.5,0.1l2.1,1.2c0.3,0.2,0.5,0.5,0.5,0.9v6.1c0,0.4,0.2,0.7,0.5,0.9l5,2.9
	c0.2,0.1,0.4,0.1,0.5,0c0.2-0.1,0.3-0.3,0.3-0.4L22.9,65.1"/>
</svg>
