<?xml version="1.0" encoding="utf-8"?>
<!-- Generator: Adobe Illustrator 24.0.0, SVG Export Plug-In . SVG Version: 6.00 Build 0)  -->
<svg version="1.1" id="Layer_1" xmlns="http://www.w3.org/2000/svg" xmlns:xlink="http://www.w3.org/1999/xlink" x="0px" y="0px"
	 viewBox="0 0 128 128" style="enable-background:new 0 0 128 128;" xml:space="preserve">
<style type="text/css">
	.st0{fill-rule:evenodd;clip-rule:evenodd;fill:#740499;}
	.st1{fill:#740499;}
</style>
<g>
	<path class="st0" d="M64,1.5c-23.5,0-42.5,19-42.5,42.5c0,18.8,12.2,34.7,29.1,40.4c2.1,0.4,2.9-0.9,2.9-2c0-1,0-4.4-0.1-7.9
		c-11.8,2.6-14.3-5-14.3-5c-1.9-4.9-4.7-6.2-4.7-6.2c-3.9-2.6,0.3-2.6,0.3-2.6c4.3,0.3,6.5,4.4,6.5,4.4c3.8,6.5,10,4.6,12.4,3.5
		c0.4-2.8,1.5-4.6,2.7-5.7c-9.5-1.1-19.4-4.7-19.4-21c0-4.6,1.7-8.4,4.4-11.4c-0.4-1.1-1.9-5.4,0.4-11.3c0,0,3.6-1.1,11.7,4.4
		c3.4-0.9,7-1.4,10.6-1.4c3.6,0,7.3,0.5,10.7,1.4c8.1-5.5,11.7-4.4,11.7-4.4c2.3,5.9,0.9,10.2,0.4,11.3c2.7,3,4.4,6.8,4.4,11.4
		c0,16.3-10,19.9-19.4,21c1.5,1.3,2.9,3.9,2.9,7.9c0,5.7,0,10.3,0,11.7c0,1.1,0.8,2.5,2.9,2c16.9-5.6,29.1-21.6,29.1-40.4
		C106.5,20.6,87.5,1.5,64,1.5z"/>
	<path class="st1" d="M37.6,62.6c-0.1,0.2-0.4,0.3-0.7,0.1c-0.3-0.1-0.5-0.4-0.4-0.6c0.1-0.2,0.4-0.3,0.7-0.1
		C37.5,62.1,37.7,62.4,37.6,62.6L37.6,62.6z M39.3,64.5c-0.2,0.2-0.6,0.1-0.9-0.2c-0.3-0.3-0.3-0.7-0.1-0.9c0.2-0.2,0.6-0.1,0.9,0.2
		C39.4,63.9,39.5,64.3,39.3,64.5L39.3,64.5z M41,67c-0.3,0.2-0.7,0-1-0.4c-0.3-0.4-0.3-0.8,0-1c0.3-0.2,0.7,0,1,0.4
		C41.2,66.3,41.2,66.8,41,67L41,67z M43.3,69.3c-0.2,0.3-0.7,0.2-1.1-0.2c-0.4-0.3-0.5-0.8-0.2-1.1c0.2-0.3,0.7-0.2,1.1,0.2
		C43.4,68.6,43.5,69.1,43.3,69.3L43.3,69.3z M46.4,70.7c-0.1,0.3-0.6,0.5-1.1,0.3c-0.5-0.1-0.8-0.5-0.7-0.9c0.1-0.3,0.6-0.5,1.1-0.3
		C46.2,70,46.5,70.4,46.4,70.7L46.4,70.7z M49.9,71c0,0.3-0.4,0.6-0.9,0.6c-0.5,0-0.9-0.3-0.9-0.6c0-0.4,0.4-0.6,0.9-0.7
		C49.5,70.3,49.9,70.6,49.9,71z M53.2,70.4c0.1,0.3-0.3,0.7-0.8,0.8c-0.5,0.1-1-0.1-1-0.5c-0.1-0.3,0.3-0.7,0.8-0.8
		C52.6,69.9,53.1,70.1,53.2,70.4L53.2,70.4z"/>
</g>
<g>
	<path class="st1" d="M24.9,108.3H14.2c-0.3,0-0.5,0.2-0.5,0.5v5.2c0,0.3,0.2,0.5,0.5,0.5h4.2v6.5c0,0-0.9,0.3-3.5,0.3
		c-3.1,0-7.3-1.1-7.3-10.5c0-9.4,4.4-10.6,8.6-10.6c3.6,0,5.2,0.6,6.2,0.9c0.3,0.1,0.6-0.2,0.6-0.5l1.2-5.1c0-0.2-0.1-0.3-0.2-0.4
		c-0.4-0.3-2.9-1.7-9.1-1.7c-7.1,0-14.5,3-14.5,17.7c0,14.6,8.4,16.8,15.5,16.8c5.9,0,9.4-2.5,9.4-2.5c0.1-0.1,0.2-0.3,0.2-0.4
		v-16.3C25.4,108.5,25.1,108.3,24.9,108.3L24.9,108.3z M79.5,94.8h-6c-0.3,0-0.5,0.2-0.5,0.5c0,0,0,0,0,0l0,11.6h-9.4V95.3
		c0-0.3-0.2-0.5-0.5-0.5c0,0,0,0,0,0h-6c-0.3,0-0.5,0.2-0.5,0.5c0,0,0,0,0,0v31.5c0,0.3,0.2,0.5,0.5,0.5h6c0.3,0,0.5-0.2,0.5-0.5
		c0,0,0,0,0,0v-13.5H73l0,13.5c0,0.3,0.2,0.5,0.5,0.5h6c0.3,0,0.5-0.2,0.5-0.5c0,0,0,0,0,0V95.3C80,95,79.8,94.8,79.5,94.8z
		 M32.3,95.5c-2.1,0-3.9,1.8-3.9,3.9c0,2.2,1.7,3.9,3.9,3.9c2.1,0,3.9-1.8,3.9-3.9C36.2,97.3,34.5,95.5,32.3,95.5z M35.3,105.1h-6
		c-0.3,0-0.5,0.3-0.5,0.6v20.9c0,0.6,0.4,0.8,0.9,0.8h5.4c0.6,0,0.7-0.3,0.7-0.8v-6.3v-14.6C35.8,105.4,35.6,105.1,35.3,105.1
		C35.3,105.1,35.3,105.1,35.3,105.1L35.3,105.1z M102.9,105.2h-6c-0.3,0-0.5,0.2-0.5,0.5c0,0,0,0,0,0v15.5c0,0-1.5,1.1-3.7,1.1
		s-2.7-1-2.7-3.1v-13.5c0-0.3-0.2-0.5-0.5-0.5c0,0,0,0,0,0h-6.1c-0.3,0-0.5,0.2-0.5,0.5v14.5c0,6.3,3.5,7.8,8.3,7.8
		c3.9,0,7.1-2.2,7.1-2.2s0.2,1.2,0.2,1.3c0.1,0.1,0.2,0.3,0.4,0.3l3.9,0c0.3,0,0.5-0.2,0.5-0.5v0l0-21.2
		C103.4,105.4,103.2,105.2,102.9,105.2L102.9,105.2z M119.2,104.5c-3.4,0-5.7,1.5-5.7,1.5V95.3c0-0.3-0.2-0.5-0.5-0.5c0,0,0,0,0,0
		h-6c-0.3,0-0.5,0.2-0.5,0.5c0,0,0,0,0,0v31.5c0,0.3,0.2,0.5,0.5,0.5c0,0,0,0,0,0h4.2c0.2,0,0.3-0.1,0.4-0.3
		c0.1-0.2,0.3-1.5,0.3-1.5s2.5,2.3,7.1,2.3c5.5,0,8.6-2.8,8.6-12.5S122.6,104.5,119.2,104.5L119.2,104.5z M116.9,122.2
		c-2.1-0.1-3.5-1-3.5-1v-10c0,0,1.4-0.8,3.1-1c2.2-0.2,4.2,0.5,4.2,5.6C120.7,121.3,119.8,122.3,116.9,122.2L116.9,122.2z
		 M53.2,122.1c-0.3,0-0.9,0.1-1.6,0.1c-2.2,0-3-1-3-2.4V111h4.5c0.3,0,0.5-0.2,0.5-0.5c0,0,0,0,0,0v-4.9c0-0.3-0.2-0.5-0.5-0.5
		c0,0,0,0,0,0h-4.5l0-6c0-0.2-0.1-0.3-0.4-0.3H42c-0.2,0-0.4,0.1-0.4,0.3v6.2c0,0-3.1,0.7-3.3,0.8c-0.2,0.1-0.4,0.3-0.4,0.5v3.9
		c0,0.3,0.2,0.5,0.5,0.5c0,0,0,0,0,0h3.2v9.3c0,6.9,4.9,7.6,8.1,7.6c1.5,0,3.3-0.5,3.6-0.6c0.2-0.1,0.3-0.3,0.3-0.5l0-4.3
		C53.7,122.3,53.5,122.1,53.2,122.1L53.2,122.1z"/>
</g>
</svg>
