<?xml version="1.0" encoding="utf-8"?>
<!-- Generator: Adobe Illustrator 21.0.2, SVG Export Plug-In . SVG Version: 6.00 Build 0)  -->
<svg version="1.1" id="Layer_1" xmlns="http://www.w3.org/2000/svg" xmlns:xlink="http://www.w3.org/1999/xlink" x="0px" y="0px"
	 viewBox="0 0 300 365" style="enable-background:new 0 0 300 365;" xml:space="preserve">
<style type="text/css">
	.st0{fill:#F7B600;}
	.st1{fill:#F4EBC9;}
	.st2{fill:#9400D3;}
	.st3{opacity:0.53;}
	.st4{fill:#F7AB1B;}
	.st5{opacity:0.57;}
	.st6{opacity:0.5;}
</style>
<g>
	<g>
		<polygon class="st0" points="209.5,236.6 146.9,197.6 86.5,229.7 147.4,269.3 		"/>
	</g>
</g>
<g>
	<polygon class="st1" points="209.2,236.8 209.3,308.7 148.9,341.2 148.4,268.8 	"/>
</g>
<g>
	<g>
		<polygon class="st2" points="148.3,269.3 148.4,341.6 86.5,300.8 86.3,229.4 		"/>
	</g>
</g>
<g class="st3">
	<g>
		<polygon class="st4" points="269.8,131.8 207.3,92.9 146.8,124.8 207.8,164.5 		"/>
	</g>
</g>
<g>
	<polygon class="st1" points="147.5,125.6 147.6,197.4 87.2,230 86.7,157.6 	"/>
</g>
<g>
	<g>
		<polygon class="st2" points="86.6,158.1 86.7,230.5 24.8,189.6 24.6,118.2 		"/>
	</g>
</g>
<g class="st5">
	<g>
		<polygon class="st0" points="270,60.8 207.4,21.8 146.9,53.8 207.9,93.4 		"/>
	</g>
</g>
<g>
	<g>
		<polygon class="st0" points="147.9,125.7 85.4,86.8 24.9,118.7 85.9,158.4 		"/>
	</g>
</g>
<g class="st3">
	<polygon class="st1" points="269.6,60.9 269.7,132.8 209.3,165.4 208.8,93 	"/>
</g>
<g class="st6">
	<g>
		<g>
			<polygon class="st2" points="208.7,93.5 208.8,165.8 146.9,124.9 146.7,53.6 			"/>
		</g>
	</g>
</g>
</svg>
