<?xml version="1.0" encoding="utf-8"?>
<!-- Generator: Adobe Illustrator 21.0.2, SVG Export Plug-In . SVG Version: 6.00 Build 0)  -->
<svg version="1.1" id="Layer_1" xmlns="http://www.w3.org/2000/svg" xmlns:xlink="http://www.w3.org/1999/xlink" x="0px" y="0px"
	 viewBox="0 0 2300 1589.2" style="enable-background:new 0 0 2300 1589.2;" xml:space="preserve">
<style type="text/css">
	.st0{opacity:0.18;fill:url(#SVGID_1_);enable-background:new    ;}
	.st1{fill:none;stroke:#9D37D3;stroke-width:1.1497;stroke-miterlimit:10;}
	.st2{opacity:0.26;fill:url(#SVGID_2_);enable-background:new    ;}
	.st3{fill:#FFFFFF;}
	.st4{opacity:0.22;fill:url(#SVGID_3_);enable-background:new    ;}
	.st5{opacity:8.000000e-02;fill:#9D37D3;enable-background:new    ;}
	.st6{opacity:0.22;fill:url(#SVGID_4_);enable-background:new    ;}
	.st7{opacity:0.22;fill:url(#SVGID_5_);enable-background:new    ;}
	.st8{opacity:0.42;fill:#9D37D3;enable-background:new    ;}
	.st9{fill:url(#SVGID_6_);}
	.st10{fill:#9D37D3;}
	.st11{fill:#7304AD;}
	.st12{opacity:0.34;fill:url(#SVGID_7_);enable-background:new    ;}
	.st13{opacity:0.14;fill:#7304AD;enable-background:new    ;}
	.st14{opacity:0.34;fill:url(#SVGID_8_);enable-background:new    ;}
	.st15{opacity:0.34;fill:url(#SVGID_9_);enable-background:new    ;}
	.st16{opacity:0.34;fill:url(#SVGID_10_);enable-background:new    ;}
	.st17{opacity:0.34;fill:url(#SVGID_11_);enable-background:new    ;}
	.st18{opacity:0.34;fill:url(#SVGID_12_);enable-background:new    ;}
	.st19{fill:none;stroke:#CA81EF;stroke-width:1.061;stroke-miterlimit:10;}
	.st20{fill:url(#SVGID_13_);}
	.st21{fill:none;stroke:#FFFFFF;stroke-width:13.0827;stroke-linecap:round;stroke-linejoin:round;stroke-miterlimit:10;}
	.st22{fill:url(#SVGID_14_);}
	.st23{opacity:0.27;fill:url(#SVGID_15_);enable-background:new    ;}
	.st24{fill:url(#SVGID_16_);}
	.st25{fill:url(#SVGID_17_);}
	.st26{fill:url(#SVGID_18_);}
	.st27{fill:url(#SVGID_19_);}
	.st28{opacity:0.67;}
	.st29{opacity:0.2;}
	.st30{display:none;}
	.st31{display:inline;fill:url(#SVGID_20_);}
	.st32{display:inline;fill:#7304AD;}
	.st33{display:inline;fill:#9D37D3;}
	.st34{display:inline;fill:url(#SVGID_21_);}
	.st35{display:inline;fill:#7F02C1;}
	.st36{display:inline;fill:url(#SVGID_22_);}
	.st37{display:inline;fill:#F9B200;}
	.st38{display:inline;opacity:0.68;fill:url(#SVGID_23_);enable-background:new    ;}
	.st39{display:inline;opacity:0.76;fill:url(#SVGID_24_);enable-background:new    ;}
</style>
<linearGradient id="SVGID_1_" gradientUnits="userSpaceOnUse" x1="1148.5468" y1="2414.5464" x2="1148.5468" y2="865.8284" gradientTransform="matrix(1 0 0 -1 0 2778.4795)">
	<stop  offset="0" style="stop-color:#FFFFFF"/>
	<stop  offset="0.48" style="stop-color:#D1A1EA"/>
	<stop  offset="1" style="stop-color:#9D37D3"/>
</linearGradient>
<path class="st0" d="M2182.3,1439.7c-2,23.4-19.1,46.2-48.8,67.8c-27.6,20.1-66.1,39.3-113.7,57H282.6
	c-34.9-18.7-65.3-41.3-90.8-69.2c-9.1-10-17.4-20.5-24.8-31.2c-131.1-190,5.9-484.9,172.6-681.4c42.7-50.2,87.3-94.2,130-128.3
	c65.8-52.5,126.7-81.4,168.1-74.4c35.4,6,45.6,36.6,57.8,74.4c15,47.2,33,105.7,105.4,142.6c13.9,7.2,28.6,12.6,43.8,17.1
	c255.6,72.4,684.1-220.5,815.5-125.5c74.5,53.9-50.2,157.8-3.6,317.1C1735.5,1276.2,2193,1311.2,2182.3,1439.7z"/>
<path class="st1" d="M510.1,1131.9"/>
<g id="Clock_1_">
	
		<linearGradient id="SVGID_2_" gradientUnits="userSpaceOnUse" x1="1973.436" y1="1831.7124" x2="1973.436" y2="2755.2693" gradientTransform="matrix(1 0 0 -1 0 2778.4795)">
		<stop  offset="0" style="stop-color:#FFFFFF"/>
		<stop  offset="0.1148" style="stop-color:#FCFAFE"/>
		<stop  offset="0.2579" style="stop-color:#F5EAFA"/>
		<stop  offset="0.4161" style="stop-color:#E8D1F5"/>
		<stop  offset="0.5851" style="stop-color:#D7ADED"/>
		<stop  offset="0.7628" style="stop-color:#C180E3"/>
		<stop  offset="0.9451" style="stop-color:#A649D7"/>
		<stop  offset="1" style="stop-color:#9D37D3"/>
	</linearGradient>
	<circle class="st2" cx="1973.4" cy="367.4" r="170.8"/>
	<path class="st3" d="M1888.7,466.4L1888.7,466.4c3.4,2.8,8.3,2.2,11.1-1l61.2-73.8c2.8-3.4,2.2-8.3-1-11.1l0,0
		c-3.4-2.8-8.3-2.2-11.1,1l-61.2,73.8C1884.9,458.7,1885.4,463.6,1888.7,466.4z"/>
	<path class="st3" d="M1986.8,353.2L1986.8,353.2c2.7,2,6.3,1.4,8.3-1.3l52.6-72c2-2.7,1.4-6.3-1.3-8.3l0,0c-2.7-2-6.3-1.4-8.3,1.3
		l-52.6,72C1983.7,347.6,1984.2,351.3,1986.8,353.2z"/>
	<circle class="st3" cx="1973.7" cy="365.6" r="25.5"/>
</g>
<g id="Window_1_">
	
		<linearGradient id="SVGID_3_" gradientUnits="userSpaceOnUse" x1="627.9897" y1="1958.3627" x2="627.9897" y2="3509.4485" gradientTransform="matrix(1 0 0 -1 0 2778.4795)">
		<stop  offset="0" style="stop-color:#FFFFFF"/>
		<stop  offset="6.245208e-02" style="stop-color:#F8F0FC"/>
		<stop  offset="0.4026" style="stop-color:#D1A1EA"/>
		<stop  offset="0.683" style="stop-color:#B568DE"/>
		<stop  offset="0.8895" style="stop-color:#A444D6"/>
		<stop  offset="1" style="stop-color:#9D37D3"/>
	</linearGradient>
	<path class="st4" d="M939.4,161.2v629.2c0,32.6-31.3,59.2-69.5,59.2H386c-13.9,0-26.8-3.5-37.6-9.5c-19.2-10.5-31.9-28.9-31.9-49.7
		V161.2c0-20.8,12.6-39.2,31.9-49.7c10.9-6,23.7-9.5,37.6-9.5h484.1C908.3,102,939.4,128.7,939.4,161.2z"/>
	<path class="st5" d="M939.4,346.6v443.8c0,32.6-31.3,59.2-69.5,59.2H386c-38.3,0-69.5-26.7-69.5-59.2V488.5
		c35.5-28.8,80-52.6,127-48.8c65.4,5.3,66.2,58,131.1,72.8C701.4,541.6,835.4,371.5,939.4,346.6z"/>
	
		<linearGradient id="SVGID_4_" gradientUnits="userSpaceOnUse" x1="333.1031" y1="1967.0889" x2="333.1031" y2="3478.8452" gradientTransform="matrix(1 0 0 -1 0 2778.4795)">
		<stop  offset="0" style="stop-color:#FFFFFF"/>
		<stop  offset="6.245208e-02" style="stop-color:#F8F0FC"/>
		<stop  offset="0.4026" style="stop-color:#D1A1EA"/>
		<stop  offset="0.683" style="stop-color:#B568DE"/>
		<stop  offset="0.8895" style="stop-color:#A444D6"/>
		<stop  offset="1" style="stop-color:#9D37D3"/>
	</linearGradient>
	<path class="st6" d="M349.8,117.7V834c0,2.2-0.6,4.4-1.5,6.2c-19.2-10.5-31.9-28.9-31.9-49.7V161.2c0-20.8,12.8-39.2,31.9-49.7
		C349.2,113.4,349.8,115.5,349.8,117.7z"/>
	
		<linearGradient id="SVGID_5_" gradientUnits="userSpaceOnUse" x1="659.0784" y1="1932.7262" x2="659.0784" y2="2676.4692" gradientTransform="matrix(1 0 0 -1 0 2778.4795)">
		<stop  offset="0" style="stop-color:#FFFFFF"/>
		<stop  offset="6.245208e-02" style="stop-color:#F8F0FC"/>
		<stop  offset="0.4026" style="stop-color:#D1A1EA"/>
		<stop  offset="0.683" style="stop-color:#B568DE"/>
		<stop  offset="0.8895" style="stop-color:#A444D6"/>
		<stop  offset="1" style="stop-color:#9D37D3"/>
	</linearGradient>
	<path class="st7" d="M670.1,113.8V830c0,8.7-8.3,15.7-18.5,15.7h-3.5V102h15.9C667.9,105,670.1,109.2,670.1,113.8z"/>
	<rect x="316.4" y="322.9" class="st3" width="623" height="29.5"/>
	<rect x="316.4" y="263.8" class="st3" width="623" height="29.5"/>
	<rect x="316.4" y="204.9" class="st3" width="623" height="29.5"/>
	<rect x="316.4" y="145.8" class="st3" width="623" height="29.5"/>
	<rect x="607.8" y="102" class="st3" width="40.3" height="743.5"/>
</g>
<path class="st8" d="M2176.1,1551.7c0,2.9-1.4,5.6-3.6,7.6c-2.2,2-5.5,3.2-8.8,3.2H174.5c-6.9,0-12.5-4.8-12.5-10.8
	c0-2.9,1.4-5.6,3.6-7.6c2.2-2,5.5-3.2,8.8-3.2h1988.8C2170.4,1540.9,2176.1,1545.8,2176.1,1551.7z"/>
<g id="laptop">
	
		<linearGradient id="SVGID_6_" gradientUnits="userSpaceOnUse" x1="1174.1123" y1="1026.6686" x2="1174.1123" y2="2557.7571" gradientTransform="matrix(1 0 0 -1 0 2778.4795)">
		<stop  offset="0" style="stop-color:#9D37D3"/>
		<stop  offset="1" style="stop-color:#7304AD"/>
	</linearGradient>
	<path class="st9" d="M1616.1,1029.6v455.7h-884v-455.7c0-37.6,34.1-68.4,75.9-68.4h732.1C1582.1,961.3,1616.1,991.9,1616.1,1029.6z
		"/>
	<path class="st10" d="M1584.5,1491.1H763.7v-446.5c0-30.3,24.6-54.9,54.9-54.9h711.2c30.3,0,54.9,24.6,54.9,54.9L1584.5,1491.1
		L1584.5,1491.1z"/>
	<path class="st11" d="M1684.7,1539.7H676.8c-15,0-27.2-12.2-27.2-27.2l0,0c0-15,12.2-27.2,27.2-27.2h1007.9
		c15,0,27.2,12.2,27.2,27.2l0,0C1712,1527.5,1699.7,1539.7,1684.7,1539.7z"/>
	
		<linearGradient id="SVGID_7_" gradientUnits="userSpaceOnUse" x1="818.5922" y1="1663.3141" x2="1163.3051" y2="1663.3141" gradientTransform="matrix(1 0 0 -1 0 2778.4795)">
		<stop  offset="0" style="stop-color:#AF9C9C"/>
		<stop  offset="0.8582" style="stop-color:#C2B5B5"/>
		<stop  offset="1" style="stop-color:#C6BABA"/>
	</linearGradient>
	<path class="st12" d="M1163.3,1064.3V1166c0,15.7-12.8,28.5-28.5,28.5H847.1c-15.7,0-28.5-12.8-28.5-28.5v-101.8
		c0-15.7,12.8-28.5,28.5-28.5h287.7C1150.5,1035.8,1163.3,1048.6,1163.3,1064.3z"/>
	<path class="st13" d="M1472.2,1463.6h-200.7c-23,0-42-18.8-42-42V1089c0-23,18.8-42,42-42h200.7c23,0,42,18.8,42,42v332.6
		C1514.2,1444.6,1495.4,1463.6,1472.2,1463.6z"/>
	
		<linearGradient id="SVGID_8_" gradientUnits="userSpaceOnUse" x1="819.8555" y1="1523.871" x2="1162.1821" y2="1523.871" gradientTransform="matrix(1 0 0 -1 0 2778.4795)">
		<stop  offset="0" style="stop-color:#AF9C9C"/>
		<stop  offset="0.8582" style="stop-color:#C2B5B5"/>
		<stop  offset="1" style="stop-color:#C6BABA"/>
	</linearGradient>
	<path class="st14" d="M1141,1277.3H840.9c-11.5,0-21.1-9.4-21.1-21.1v-3.4c0-11.5,9.4-21.1,21.1-21.1h300.2
		c11.5,0,21.1,9.4,21.1,21.1v3.4C1162,1267.9,1152.6,1277.3,1141,1277.3z"/>
	
		<linearGradient id="SVGID_9_" gradientUnits="userSpaceOnUse" x1="819.8555" y1="1436.8507" x2="1162.1821" y2="1436.8507" gradientTransform="matrix(1 0 0 -1 0 2778.4795)">
		<stop  offset="0" style="stop-color:#AF9C9C"/>
		<stop  offset="0.8582" style="stop-color:#C2B5B5"/>
		<stop  offset="1" style="stop-color:#C6BABA"/>
	</linearGradient>
	<path class="st15" d="M1141,1364.4H840.9c-11.5,0-21.1-9.4-21.1-21.1v-3.4c0-11.5,9.4-21.1,21.1-21.1h300.2
		c11.5,0,21.1,9.4,21.1,21.1v3.4C1162,1354.8,1152.6,1364.4,1141,1364.4z"/>
	
		<linearGradient id="SVGID_10_" gradientUnits="userSpaceOnUse" x1="819.8555" y1="1349.9706" x2="990.9485" y2="1349.9706" gradientTransform="matrix(1 0 0 -1 0 2778.4795)">
		<stop  offset="0" style="stop-color:#AF9C9C"/>
		<stop  offset="0.8582" style="stop-color:#C2B5B5"/>
		<stop  offset="1" style="stop-color:#C6BABA"/>
	</linearGradient>
	<path class="st16" d="M968.2,1451.2H842.6c-12.5,0-22.7-10.2-22.7-22.7l0,0c0-12.5,10.2-22.7,22.7-22.7h125.6
		c12.5,0,22.7,10.2,22.7,22.7l0,0C990.9,1441,980.7,1451.2,968.2,1451.2z"/>
	
		<linearGradient id="SVGID_11_" gradientUnits="userSpaceOnUse" x1="1286.3967" y1="1478.3958" x2="1457.4899" y2="1478.3958" gradientTransform="matrix(1 0 0 -1 0 2778.4795)">
		<stop  offset="0" style="stop-color:#AF9C9C"/>
		<stop  offset="0.8582" style="stop-color:#C2B5B5"/>
		<stop  offset="1" style="stop-color:#C6BABA"/>
	</linearGradient>
	<path class="st17" d="M1434.8,1322.8h-125.6c-12.5,0-22.7-10.2-22.7-22.7l0,0c0-12.5,10.2-22.7,22.7-22.7h125.6
		c12.5,0,22.7,10.2,22.7,22.7l0,0C1457.5,1312.6,1447.2,1322.8,1434.8,1322.8z"/>
	
		<linearGradient id="SVGID_12_" gradientUnits="userSpaceOnUse" x1="1286.3967" y1="1387.5859" x2="1457.4899" y2="1387.5859" gradientTransform="matrix(1 0 0 -1 0 2778.4795)">
		<stop  offset="0" style="stop-color:#AF9C9C"/>
		<stop  offset="0.8582" style="stop-color:#C2B5B5"/>
		<stop  offset="1" style="stop-color:#C6BABA"/>
	</linearGradient>
	<path class="st18" d="M1434.8,1413.6h-125.6c-12.5,0-22.7-10.2-22.7-22.7l0,0c0-12.5,10.2-22.7,22.7-22.7h125.6
		c12.5,0,22.7,10.2,22.7,22.7l0,0C1457.5,1403.4,1447.2,1413.6,1434.8,1413.6z"/>
	<g>
		<path class="st19" d="M1372,1163.5"/>
		
			<linearGradient id="SVGID_13_" gradientUnits="userSpaceOnUse" x1="1372.0134" y1="1444.1421" x2="1372.0134" y2="1911.7334" gradientTransform="matrix(1 0 0 -1 0 2778.4795)">
			<stop  offset="0" style="stop-color:#F2C300"/>
			<stop  offset="0.3877" style="stop-color:#F7BD14"/>
			<stop  offset="1" style="stop-color:#FFB52F"/>
		</linearGradient>
		<circle class="st20" cx="1372" cy="1163.5" r="72.1"/>
		<polyline class="st21" points="1342.7,1165.8 1363,1192 1408.9,1142.6 		"/>
	</g>
</g>
<g id="Cup_of_tea">
	<g>
		<g>
			<path class="st11" d="M1859.9,1320.6c-47.3,0-86.2,40.4-86.2,90.2c0,50,42.1,90.4,89.4,90.4v-28.1c-32.6,0-62.7-27.9-62.7-62.3
				c0-34.2,27.9-61.9,60.5-61.9L1859.9,1320.6z"/>
			
				<linearGradient id="SVGID_14_" gradientUnits="userSpaceOnUse" x1="37.0458" y1="1364.1465" x2="334.8109" y2="1364.1465" gradientTransform="matrix(-1 0 0 -1 2106.7168 2778.4795)">
				<stop  offset="0" style="stop-color:#9D37D3"/>
				<stop  offset="1" style="stop-color:#7304AD"/>
			</linearGradient>
			<path class="st22" d="M1859.6,1305.4l3.6,191.4c0.6,23.7,19.8,42.7,43.5,42.7h111.4c6.5,0,12.5-1.4,18-3.8l0,0
				c15-6.7,25.4-22,25.4-39.4v-191.4c0-8.7-7.2-15.7-15.7-15.7l-154.4,0.6h-16.1C1866.3,1289.4,1859.5,1296.6,1859.6,1305.4z"/>
		</g>
		
			<linearGradient id="SVGID_15_" gradientUnits="userSpaceOnUse" x1="101.2612" y1="2055.5002" x2="101.2612" y2="1174.3177" gradientTransform="matrix(-1 0 0 -1 2106.7168 2778.4795)">
			<stop  offset="0" style="stop-color:#FFFFFF"/>
			<stop  offset="0.48" style="stop-color:#D1A1EA"/>
			<stop  offset="1" style="stop-color:#9D37D3"/>
		</linearGradient>
		<path class="st23" d="M1823.1,756.1c-7.2,37.6-9.4,87.2,18,126.2c26.4,37.2,54,28.2,81.1,65.3c36.5,50.1,31.6,128.8,13.5,180.2
			c-11.4,32.7-31,49.4-30.3,81.5c0.7,32.6,22.2,63,35.4,80.6h60.4c17-9,40.4-25.1,49.5-51.8c13.3-39-17.5-60.5-13.5-99.1
			c6.6-63.6,97-69.6,137.4-144.1c15.4-28.6,28.9-77.3,4.5-159.9L1823.1,756.1z"/>
	</g>
	<path class="st11" d="M1859.6,1305.4l3.6,191.4c0.6,23.7,19.8,42.7,43.5,42.7h74.1c-25.3-3.6-49.5-13.9-67.4-32.4
		c-22.7-23.6-26-53.3-29.8-86.5c-7.6-67.9,14.3-104.3,7.6-131.4h-16.1C1866.3,1289.4,1859.5,1296.6,1859.6,1305.4z"/>
	<g>
		<rect x="1999.4" y="1289" class="st3" width="7.6" height="77.3"/>
		
			<linearGradient id="SVGID_16_" gradientUnits="userSpaceOnUse" x1="104.5801" y1="1351.4957" x2="104.5801" y2="1445.1687" gradientTransform="matrix(-1 0 0 -1 2106.7168 2778.4795)">
			<stop  offset="0" style="stop-color:#F2C300"/>
			<stop  offset="0.3877" style="stop-color:#F7BD14"/>
			<stop  offset="1" style="stop-color:#FFB52F"/>
		</linearGradient>
		<path class="st24" d="M1981.3,1413.9h41.7c3.8,0,6.9-3.1,6.9-6.9v-34.8c0-3.8-3.1-6.9-6.9-6.9h-41.7c-3.8,0-6.9,3.1-6.9,6.9v34.8
			C1974.3,1410.8,1977.5,1413.9,1981.3,1413.9z"/>
	</g>
</g>
<g>
	<g>
		
			<linearGradient id="SVGID_17_" gradientUnits="userSpaceOnUse" x1="288.1094" y1="1630.7429" x2="288.1094" y2="1281.5677" gradientTransform="matrix(1 0 0 -1 0 2778.4795)">
			<stop  offset="0" style="stop-color:#AF9C9C"/>
			<stop  offset="0.8582" style="stop-color:#C2B5B5"/>
			<stop  offset="1" style="stop-color:#C6BABA"/>
		</linearGradient>
		<path class="st25" d="M379.1,1362.5c0,0-59.5-27.5-98.7-50.5c-40-23.4-68.5-81.4-83-119.9c-2-5.6,2.9-11.2,8.7-9.5
			C237.9,1190.3,324.7,1217.3,379.1,1362.5z"/>
		
			<linearGradient id="SVGID_18_" gradientUnits="userSpaceOnUse" x1="354.9784" y1="1630.7429" x2="354.9784" y2="1281.5677" gradientTransform="matrix(1 0 0 -1 0 2778.4795)">
			<stop  offset="0" style="stop-color:#AF9C9C"/>
			<stop  offset="0.8582" style="stop-color:#C2B5B5"/>
			<stop  offset="1" style="stop-color:#C6BABA"/>
		</linearGradient>
		<path class="st26" d="M329.5,1090.8c-3.1-1.8-7.2-0.1-8.1,3.4c-3.8,14-18.7,36.9-7.2,84.8c10,42.5,72.7,117.6,73.3,167.7
			C387.4,1346.5,440.5,1155,329.5,1090.8z"/>
		
			<linearGradient id="SVGID_19_" gradientUnits="userSpaceOnUse" x1="464.4405" y1="1630.7429" x2="464.4405" y2="1281.5677" gradientTransform="matrix(1 0 0 -1 0 2778.4795)">
			<stop  offset="0" style="stop-color:#AF9C9C"/>
			<stop  offset="0.8582" style="stop-color:#C2B5B5"/>
			<stop  offset="1" style="stop-color:#C6BABA"/>
		</linearGradient>
		<path class="st27" d="M406.9,1365.2c0,0-10.9-138,105.3-184.1c4.6-1.8,10,1.7,10,6.6c0.4,19.2-0.7,61.3-19.4,83.7
			C478.2,1301.1,434.6,1321.6,406.9,1365.2z"/>
		<path class="st10" d="M513.6,1395.7l-36.4,106.2l-3.1,9.3l-1.7,4.5c-2.2,6.5-6,12.1-11.2,16.1c-6.5,5.3-14.7,8.7-23.7,8.7h-87.7
			c-16.1,0-30.5-10.5-35.1-25.8l-36.4-119.4c-1.7-5.3-1-10.9,1.7-15.2c3.4-5.9,9.5-10,17.1-10h197.9
			C508.4,1369.6,517.8,1382.9,513.6,1395.7z"/>
	</g>
	<g class="st28">
		<g class="st29">
			<path class="st11" d="M220.5,1202.8c26.2,18.1,50.5,39,73,61.6c22.2,22.9,42.7,47.6,60.2,74.2c-10-12.4-20.1-24.6-30.6-36.4
				c-10.5-11.8-21.2-23.4-32.1-34.9c-10.9-11.4-22.3-22.3-34.1-33.1C244.5,1223.7,232.7,1213.2,220.5,1202.8z"/>
		</g>
		<g class="st29">
			<path class="st11" d="M334.2,1119.4c9.5,13.9,18.1,28.5,25.3,43.8c7.2,15.2,12.9,31.4,17.5,47.6c4.5,16.3,7.7,32.8,9.5,49.8
				c1.8,16.8,2.2,33.8,1.1,50.5c-0.4-16.8-1.8-33.5-4.2-50.1c-1.1-8.3-2.8-16.6-4.2-24.7c-1.7-8.3-3.5-16.3-5.9-24.4
				c-4.5-16.1-10-32-16.6-47.4C349.8,1148.9,342.4,1134,334.2,1119.4z"/>
		</g>
		<g class="st29">
			<path class="st11" d="M413.7,1341.5c3.1-13.5,7.6-26.5,13.3-39.2c2.8-6.3,5.9-12.5,9.3-18.7c3.4-6,7-12.1,10.7-17.7
				c7.7-11.4,16.3-22.3,25.8-32.4c9.5-10,20.1-19.2,31.4-27.4c-10.4,9.3-19.9,18.9-28.8,29.3s-17.5,21.2-25.1,32.4
				C435.1,1290.7,422.9,1315.5,413.7,1341.5z"/>
		</g>
	</g>
	<path class="st11" d="M476.8,1501.8l-3.1,9.3l-1.7,4.5c-2.2,6.5-6,12.1-11.2,16.1c-6.5,5.3-14.7,8.7-23.7,8.7h-87.7
		c-16.1,0-30.5-10.5-35.1-25.8l-36.4-119.4c-1.7-5.3-1-10.9,1.7-15.2c3.4-5.9,9.5-10,17.1-10h10.7c11.6,30.6,24.6,83,70.2,112
		C412.7,1503.9,449.7,1502.2,476.8,1501.8z"/>
</g>
<g id="Lamp" class="st30">
	
		<linearGradient id="SVGID_20_" gradientUnits="userSpaceOnUse" x1="395.6326" y1="2223.3396" x2="491.5751" y2="2223.3396" gradientTransform="matrix(1 0 0 -1 0 2778.4795)">
		<stop  offset="0" style="stop-color:#F2C300"/>
		<stop  offset="0.3877" style="stop-color:#F7BD14"/>
		<stop  offset="1" style="stop-color:#FFB52F"/>
	</linearGradient>
	<path class="st31" d="M491.6,555.1c0,23.9-17.4,43.7-40.2,47.4c-2.5,0.4-5.1,0.6-7.7,0.6c-17.9,0-33.5-9.8-41.7-24.3
		c-4-7-6.2-15.1-6.2-23.7c0-26.5,21.5-48,48-48c7.2,0,14.1,1.6,20.3,4.5c5.1,2.3,9.6,5.6,13.6,9.5
		C486.2,529.8,491.6,541.8,491.6,555.1z"/>
	<polygon class="st32" points="381.9,883.3 322.4,883.3 321.4,881.6 313,866.2 304.6,851.2 292.9,830.1 260.5,771.7 244.3,742.6 
		229,715 221.6,701.7 209.5,679.8 220.1,671 225,666.9 231.6,676 253.2,705.8 258.1,712.5 279.8,742.4 316.9,793.7 323,802 
		345.8,833.6 362.4,856.5 380.6,881.6 	"/>
	<polygon class="st32" points="213.1,658.3 251,683.2 396.5,515.4 379,502.3 	"/>
	<path class="st33" d="M481,507.1l-7.8,10.3l-48.9,64.3l-9.1,12l-7.1,9.4c-2.7,3.5-7.3,4.5-11.1,2.9c-1.1-0.5-2.1-1.2-3-2.1
		c-16.3-16.8-22.8-40.4-18.3-62.6l0,0c0.8-1.9,0.7-3.1,1.5-6c1.9-7.1-1.7-14.8-7.3-20.2c-0.7-0.6-1.4-1.2-2.1-1.7
		c-0.7-0.6-1.5-1.1-2.3-1.5L348,498.6c-0.4-0.3-0.5-1-0.2-1.4l0.7-0.9l7.3-9.4l6.9-8.8c0.3-0.4,0.9-0.5,1.4-0.2l17.5,12.8
		c0.7,0.6,1.4,1.2,2.1,1.8c0.8,0.6,1.5,1.1,2.3,1.5c6.6,4,14.5,4.4,21.4,1.6l0,0c2.7-1.6,3.7-2,5.4-3c20.2-10.2,44.6-10.3,65.2,0.9
		C483,496.1,484.4,502.6,481,507.1z"/>
	
		<linearGradient id="SVGID_21_" gradientUnits="userSpaceOnUse" x1="224.4961" y1="2103.0896" x2="341.3977" y2="2103.0896" gradientTransform="matrix(1 0 0 -1 0 2778.4795)">
		<stop  offset="0" style="stop-color:#9D37D3"/>
		<stop  offset="1" style="stop-color:#7304AD"/>
	</linearGradient>
	<path class="st34" d="M273.8,675.4c0,1.6-0.1,3.1-0.3,4.6c-1.6,11.4-9.1,21-19.3,25.4c-2.5,1.1-5.2,1.9-7.9,2.3
		c-0.7,0.1-1.4,0.2-2.1,0.3c-1,0.1-2,0.1-3,0.1c-2.2,0-4.4-0.2-6.5-0.7c-13.5-2.7-24-13.7-25.9-27.4c-0.2-1.5-0.3-3.1-0.3-4.7
		c0-4.8,1-9.4,2.9-13.5c0.8-1.8,1.8-3.6,3-5.2c1.1-1.6,2.3-3,3.6-4.4l0,0c5.9-5.9,14.1-9.6,23.2-9.6c3.1,0,6.1,0.4,8.9,1.2
		C263.8,647.8,273.8,660.4,273.8,675.4z"/>
	<path class="st35" d="M258.1,712.5c-3.5,2.2-7.5,3.7-11.8,4.4c-0.7,0.1-1.4,0.2-2.1,0.3c-1,0.1-2,0.1-3,0.1
		c-4.3,0-8.4-0.8-12.1-2.3l-7.3-13.3c5.4,4,12.2,6.4,19.4,6.4c1,0,2,0,3-0.1c0.7-0.1,1.4-0.1,2.1-0.3c2.4-0.4,4.7-1,6.9-1.9
		L258.1,712.5z"/>
	<path class="st33" d="M408.6,903.5H291.5c0-3,0.3-6,1-8.8c0-0.1,0-0.2,0.1-0.4c0.4-1.7,0.9-3.3,1.5-4.9c1-2.7,2.3-5.4,4-7.9
		c3.7-5.9,8.8-11.1,15-15.3c3.9-2.6,8.2-4.8,12.8-6.5c7.4-2.8,15.6-4.3,24.3-4.3c4.3,0,8.4,0.4,12.4,1.1c3.8,0.7,7.5,1.6,11,2.9
		c0.3,0.1,0.7,0.3,1.1,0.4c11.9,4.5,21.7,12.2,27.6,21.8c2.5,4,4.3,8.2,5.4,12.8c0.1,0.3,0.1,0.5,0.2,0.8
		C408.2,897.8,408.6,900.6,408.6,903.5z"/>
	<path class="st35" d="M362.4,856.5c-4-0.7-8.1-1.1-12.4-1.1c-8.7,0-16.9,1.6-24.3,4.3c-4.6,1.7-8.9,4-12.8,6.5l-8.4-15
		c5.7-5.8,12.9-10.4,21.1-13.5c6.2-2.3,12.9-3.8,20.1-4.2L362.4,856.5z"/>
	
		<linearGradient id="SVGID_22_" gradientUnits="userSpaceOnUse" x1="416.2888" y1="2167.5212" x2="344.0769" y2="2313.1003" gradientTransform="matrix(1 0 0 -1 0 2778.4795)">
		<stop  offset="0" style="stop-color:#9D37D3"/>
		<stop  offset="1" style="stop-color:#7304AD"/>
	</linearGradient>
	<path class="st36" d="M424.3,581.7l-16.2,21.4c-2.7,3.5-7.3,4.5-11.1,2.9c-1.1-0.5-2.1-1.2-3-2.1c-16.3-16.8-22.8-40.4-18.3-62.6
		l0,0c0.8-1.9,0.7-3.1,1.5-6c1.9-7.1-1.7-14.8-7.3-20.2c-0.7-0.6-1.4-1.2-2.1-1.7c-0.7-0.6-1.5-1.1-2.3-1.5L348,498.6
		c-0.4-0.3-0.5-1-0.2-1.4l0.7-0.9c17,2.1,35.8,11.7,43.3,25.6c7.5,13.9-1.2,23.2,6.9,39C404.9,572.6,415.2,577.9,424.3,581.7z"/>
	<path class="st37" d="M477.5,521.1c-7,6.3-16.6,15.2-22.3,28.2c-7.9,18.1-5.8,38.5-3.8,53.1c-2.5,0.4-5.1,0.6-7.7,0.6
		c-10.6,0-20.5-3.5-28.5-9.4l9.1-12l48.9-64.3C474.7,518.5,476.1,519.8,477.5,521.1z"/>
	
		<linearGradient id="SVGID_23_" gradientUnits="userSpaceOnUse" x1="346.7235" y1="1889.9108" x2="258.3362" y2="1934.5377" gradientTransform="matrix(1 0 0 -1 0 2778.4795)">
		<stop  offset="0" style="stop-color:#9D37D3"/>
		<stop  offset="1" style="stop-color:#7304AD"/>
	</linearGradient>
	<path class="st38" d="M321.2,903.5h-29.8c0-3,0.3-6,1-8.8c0-0.1,0-0.2,0.1-0.4c0.4-1.7,0.9-3.3,1.5-4.9
		c4.9-13.2,16.6-24.1,31.8-29.8c7.4-2.8,15.6-4.3,24.3-4.3c8.3,0,16.2,1.4,23.4,4c0.3,0.1,0.7,0.3,1.1,0.4
		c-11.6,2.9-40.3,3.5-49.9,22C321.2,888.2,320,897.1,321.2,903.5z"/>
	
		<linearGradient id="SVGID_24_" gradientUnits="userSpaceOnUse" x1="277.1572" y1="2066.2466" x2="172.3055" y2="2165.8989" gradientTransform="matrix(1 0 0 -1 0 2778.4795)">
		<stop  offset="0" style="stop-color:#9D37D3"/>
		<stop  offset="1" style="stop-color:#7304AD"/>
	</linearGradient>
	<path class="st39" d="M216.6,679.6c-2.2,11.4,13.8,21.3,18,27.8c-13.5-2.7-24-13.7-25.9-27.4c-0.2-1.5-0.3-3.1-0.3-4.7
		c0-4.8,1-9.4,2.9-13.5c0.8-1.8,1.8-3.6,3-5.2c1.1-1.6,2.3-3,3.6-4.4l0,0c5.9-5.9,14.1-9.6,23.2-9.6c3.1,0,6.1,0.4,8.9,1.2
		c1.9,1.8,3.2,3.9,3.2,6.3C253.3,661.9,219.5,664,216.6,679.6z"/>
</g>
</svg>
