<?xml version="1.0" encoding="utf-8"?>
<!-- Generator: Adobe Illustrator 21.0.2, SVG Export Plug-In . SVG Version: 6.00 Build 0)  -->
<svg version="1.1" id="Layer_1" xmlns="http://www.w3.org/2000/svg" xmlns:xlink="http://www.w3.org/1999/xlink" x="0px" y="0px"
	 viewBox="0 0 188 183" style="enable-background:new 0 0 188 183;" xml:space="preserve">
<style type="text/css">
	.st0{fill:#9D37D3;}
</style>
<circle class="st0" cx="11.5" cy="11.5" r="2.5"/>
<circle class="st0" cx="11.5" cy="31.5" r="2.5"/>
<circle class="st0" cx="11.5" cy="51.5" r="2.5"/>
<circle class="st0" cx="11.5" cy="71.5" r="2.5"/>
<circle class="st0" cx="11.5" cy="91.5" r="2.5"/>
<circle class="st0" cx="11.5" cy="111.5" r="2.5"/>
<circle class="st0" cx="11.5" cy="131.5" r="2.5"/>
<circle class="st0" cx="11.5" cy="151.5" r="2.5"/>
<circle class="st0" cx="11.5" cy="171.5" r="2.5"/>
<circle class="st0" cx="31.5" cy="31.5" r="2.5"/>
<circle class="st0" cx="31.5" cy="51.5" r="2.5"/>
<circle class="st0" cx="31.5" cy="71.5" r="2.5"/>
<circle class="st0" cx="31.5" cy="91.5" r="2.5"/>
<circle class="st0" cx="31.5" cy="111.5" r="2.5"/>
<circle class="st0" cx="31.5" cy="131.5" r="2.5"/>
<circle class="st0" cx="31.5" cy="151.5" r="2.5"/>
<circle class="st0" cx="31.5" cy="171.5" r="2.5"/>
<circle class="st0" cx="51.5" cy="51.5" r="2.5"/>
<circle class="st0" cx="51.5" cy="71.5" r="2.5"/>
<circle class="st0" cx="51.5" cy="91.5" r="2.5"/>
<circle class="st0" cx="51.5" cy="111.5" r="2.5"/>
<circle class="st0" cx="51.5" cy="131.5" r="2.5"/>
<circle class="st0" cx="51.5" cy="151.5" r="2.5"/>
<circle class="st0" cx="51.5" cy="171.5" r="2.5"/>
<circle class="st0" cx="71.5" cy="71.5" r="2.5"/>
<circle class="st0" cx="71.5" cy="91.5" r="2.5"/>
<circle class="st0" cx="71.5" cy="111.5" r="2.5"/>
<circle class="st0" cx="71.5" cy="131.5" r="2.5"/>
<circle class="st0" cx="71.5" cy="151.5" r="2.5"/>
<circle class="st0" cx="71.5" cy="171.5" r="2.5"/>
<circle class="st0" cx="91.5" cy="91.5" r="2.5"/>
<circle class="st0" cx="91.5" cy="111.5" r="2.5"/>
<circle class="st0" cx="91.5" cy="131.5" r="2.5"/>
<circle class="st0" cx="91.5" cy="151.5" r="2.5"/>
<circle class="st0" cx="91.5" cy="171.5" r="2.5"/>
<circle class="st0" cx="111.5" cy="111.5" r="2.5"/>
<circle class="st0" cx="111.5" cy="131.5" r="2.5"/>
<circle class="st0" cx="111.5" cy="151.5" r="2.5"/>
<circle class="st0" cx="111.5" cy="171.5" r="2.5"/>
<circle class="st0" cx="131.5" cy="131.5" r="2.5"/>
<circle class="st0" cx="131.5" cy="151.5" r="2.5"/>
<circle class="st0" cx="131.5" cy="171.5" r="2.5"/>
<circle class="st0" cx="151.5" cy="151.5" r="2.5"/>
<circle class="st0" cx="151.5" cy="171.5" r="2.5"/>
<circle class="st0" cx="171.5" cy="171.5" r="2.5"/>
</svg>
