<?xml version="1.0" encoding="utf-8"?>
<!-- Generator: Adobe Illustrator 21.0.2, SVG Export Plug-In . SVG Version: 6.00 Build 0)  -->
<svg version="1.1" id="Layer_1" xmlns="http://www.w3.org/2000/svg" xmlns:xlink="http://www.w3.org/1999/xlink" x="0px" y="0px"
	 viewBox="0 0 402 322" style="enable-background:new 0 0 402 322;" xml:space="preserve">
<style type="text/css">
	.st0{fill:none;stroke:#000000;stroke-width:3;stroke-miterlimit:10;}
	.st1{fill:none;stroke:#000000;stroke-width:2;stroke-miterlimit:10;}
</style>
<path class="st0" d="M29,29.5c24.3,0,24.3,22,48.6,22c24.3,0,24.3-22,48.6-22c24.3,0,24.3,22,48.6,22c24.3,0,24.3-22,48.6-22
	c24.3,0,24.3,22,48.6,22c24.3,0,24.3-22,48.6-22s24.3,22,48.6,22"/>
<path class="st0" d="M29.5,61.5c24.3,0,24.3,22,48.6,22c24.3,0,24.3-22,48.6-22c24.3,0,24.3,22,48.6,22c24.3,0,24.3-22,48.6-22
	c24.3,0,24.3,22,48.6,22c24.3,0,24.3-22,48.6-22s24.3,22,48.6,22"/>
<path class="st0" d="M30,93.5c24.3,0,24.3,22,48.6,22c24.3,0,24.3-22,48.6-22c24.3,0,24.3,22,48.6,22c24.3,0,24.3-22,48.6-22
	c24.3,0,24.3,22,48.6,22c24.3,0,24.3-22,48.6-22s24.3,22,48.6,22"/>
<path class="st0" d="M30.5,125.5c24.3,0,24.3,22,48.6,22c24.3,0,24.3-22,48.6-22c24.3,0,24.3,22,48.6,22c24.3,0,24.3-22,48.6-22
	c24.3,0,24.3,22,48.6,22c24.3,0,24.3-22,48.6-22s24.3,22,48.6,22"/>
<path class="st0" d="M31,157.5c24.3,0,24.3,22,48.6,22c24.3,0,24.3-22,48.6-22c24.3,0,24.3,22,48.6,22c24.3,0,24.3-22,48.6-22
	c24.3,0,24.3,22,48.6,22c24.3,0,24.3-22,48.6-22s24.3,22,48.6,22"/>
<path class="st0" d="M31.5,189.5c24.3,0,24.3,22,48.6,22c24.3,0,24.3-22,48.6-22c24.3,0,24.3,22,48.6,22c24.3,0,24.3-22,48.6-22
	c24.3,0,24.3,22,48.6,22c24.3,0,24.3-22,48.6-22s24.3,22,48.6,22"/>
<path class="st0" d="M32,221.5c24.3,0,24.3,22,48.6,22c24.3,0,24.3-22,48.6-22c24.3,0,24.3,22,48.6,22c24.3,0,24.3-22,48.6-22
	c24.3,0,24.3,22,48.6,22c24.3,0,24.3-22,48.6-22s24.3,22,48.6,22"/>
<path class="st0" d="M32.5,253.5c24.3,0,24.3,22,48.6,22c24.3,0,24.3-22,48.6-22c24.3,0,24.3,22,48.6,22c24.3,0,24.3-22,48.6-22
	c24.3,0,24.3,22,48.6,22c24.3,0,24.3-22,48.6-22s24.3,22,48.6,22"/>
<g>
	<path class="st0" d="M32.5,253.5c24.3,0,24.3,22,48.6,22c24.3,0,24.3-22,48.6-22c24.3,0,24.3,22,48.6,22c24.3,0,24.3-22,48.6-22
		c24.3,0,24.3,22,48.6,22c24.3,0,24.3-22,48.6-22s24.3,22,48.6,22"/>
</g>
<g>
	<path class="st1" d="M-28-89"/>
</g>
<g>
	<path class="st1" d="M-28-89"/>
</g>
<g>
	<path class="st1" d="M-28-89"/>
</g>
<g>
	<path class="st1" d="M-28-89"/>
</g>
<g>
	<path class="st1" d="M-28-89"/>
</g>
<g>
	<path class="st1" d="M-28-89"/>
</g>
<g>
	<path class="st1" d="M-28-89"/>
</g>
<g>
	<path class="st1" d="M-28-89"/>
</g>
<g>
	<path class="st1" d="M-28-89"/>
</g>
<g>
	<path class="st1" d="M-28-89"/>
</g>
</svg>
